<svg width="32" height="32" viewBox="0 0 32 32" fill="none" xmlns="http://www.w3.org/2000/svg">
<g clip-path="url(#clip0_3506_185)">
<path d="M13.6446 24.9304C8.77759 24.8408 7.11528 24.7602 6.09352 24.5497C5.40224 24.4098 4.80151 24.0993 4.36104 23.6488C4.02061 23.3079 3.74988 22.7878 3.53984 22.0662C3.35967 21.465 3.2895 20.9648 3.18946 19.7429C3.03631 16.9854 2.99981 14.7309 3.18946 12.2118C3.34592 10.8207 3.42178 9.16929 4.46108 8.20585C4.95181 7.75495 5.52267 7.46478 6.1637 7.34482C7.16506 7.15469 11.4313 7.00439 15.8479 7.00439C20.2545 7.00439 24.5302 7.15469 25.5325 7.34482C26.3333 7.49512 27.0843 7.94555 27.5253 8.52636C28.4736 10.018 28.4902 11.8728 28.5864 13.3236C28.6262 14.0149 28.6262 17.9403 28.5864 18.6316C28.4366 20.9245 28.3161 21.7357 27.9757 22.5768C27.7652 23.1079 27.5855 23.3881 27.2745 23.6986C26.7867 24.1765 26.1648 24.4944 25.4917 24.6099C21.28 24.9266 17.7036 24.9954 13.6446 24.9304ZM20.0942 15.7171C17.751 14.4649 15.5074 13.3037 13.2141 12.1018V19.2925C15.6274 17.9806 18.1716 16.7787 20.1042 15.7071L20.0942 15.7171Z" fill="white"/>
</g>
<defs>
<clipPath id="clip0_3506_185">
<rect width="25.6264" height="18" fill="white" transform="translate(3 7)"/>
</clipPath>
</defs>
</svg>
