<svg xmlns="http://www.w3.org/2000/svg" width="148" height="48"><path fill="#FFF" stroke="#140700" stroke-miterlimit="10" d="M147.5 41.5a6 6 0 01-6 6H6.5a6 6 0 01-6-6v-35a6 6 0 016-6h135a6 6 0 016 6v35z"/><text transform="translate(44.5 18.5)" fill="#140700" font-family="'Verdana'" font-size="12">Download our</text><text transform="translate(44.5 38.5)" fill="#140700" font-family="'Verdana-Bold'" font-size="16">APK</text><path fill="#000002" d="M20.481 17.176a.537.537 0 00.394-.165.541.541 0 00.165-.394.537.537 0 00-.165-.394c-.11-.109-.241-.165-.394-.165s-.281.055-.386.165a.55.55 0 00-.157.394c0 .152.052.284.157.394.105.11.234.165.386.165zm6.038 0a.512.512 0 00.386-.165.55.55 0 00.157-.394.55.55 0 00-.157-.394c-.105-.109-.233-.165-.386-.165s-.284.055-.394.165a.541.541 0 00-.165.394c0 .152.055.284.165.394.11.11.241.165.394.165zm-11.617 2.633c.4 0 .744.143 1.03.429.286.286.429.63.429 1.03v6.151c0 .41-.141.759-.422 1.045-.281.285-.627.429-1.037.429s-.758-.144-1.044-.429a1.423 1.423 0 01-.429-1.045v-6.151c0-.4.143-.744.429-1.03a1.421 1.421 0 011.044-.429zm15.164.271v9.527c0 .439-.153.812-.458 1.116a1.498 1.498 0 01-1.102.458h-1.073v3.247c0 .41-.143.759-.429 1.045s-.634.429-1.044.429-.758-.143-1.044-.429a1.423 1.423 0 01-.429-1.045v-3.247h-1.975v3.247c0 .41-.143.759-.429 1.045s-.634.429-1.044.429c-.401 0-.744-.143-1.03-.429s-.429-.635-.429-1.045l-.014-3.247h-1.059c-.439 0-.811-.152-1.116-.458a1.519 1.519 0 01-.458-1.116V20.08h13.133zm-3.318-5.794a6.29 6.29 0 012.446 2.196c.61.939.916 1.967.916 3.083H16.876a5.54 5.54 0 01.916-3.083 6.276 6.276 0 012.46-2.196l-1.016-1.874c-.067-.124-.043-.219.072-.286.124-.057.219-.028.286.086l1.03 1.888c.906-.4 1.865-.601 2.875-.601s1.97.2 2.875.601l1.03-1.888c.067-.114.162-.143.286-.086.115.067.139.162.072.286l-1.014 1.874zm6.823 6.982v6.151c0 .41-.143.759-.429 1.045a1.425 1.425 0 01-1.044.429c-.4 0-.744-.144-1.03-.429a1.423 1.423 0 01-.429-1.045v-6.151c0-.41.143-.756.429-1.037s.629-.422 1.03-.422c.41 0 .758.141 1.044.422s.429.626.429 1.037z"/></svg>