<svg width="148" height="48" fill="none" xmlns="http://www.w3.org/2000/svg"><rect width="147.429" height="48" rx="6.857" fill="#000"/><path fill-rule="evenodd" clip-rule="evenodd" d="M89.678 33.645c-1.907 0-3.302-.936-3.463-2.36h-2.219c.14 2.598 2.31 4.243 5.522 4.243 3.433 0 5.591-1.684 5.591-4.372 0-2.102-1.235-3.287-4.206-3.984l-1.596-.389c-1.867-.457-2.63-1.055-2.63-2.07 0-1.275 1.194-2.151 2.94-2.151 1.747 0 2.942.865 3.073 2.3h2.188c-.07-2.48-2.169-4.183-5.23-4.183-3.092 0-5.27 1.703-5.27 4.182 0 2.003 1.235 3.237 3.894 3.874l1.878.449c1.877.457 2.67 1.125 2.67 2.24 0 1.285-1.315 2.221-3.142 2.221zm-37.764-2.24h-5.522l-1.326 3.883h-2.338l5.23-14.37h2.43l5.229 14.37h-2.379l-1.325-3.884zm-4.95-1.793h4.376l-2.158-6.303h-.06l-2.159 6.303zm15.54 5.786c2.65 0 4.407-2.092 4.407-5.348 0-3.246-1.767-5.348-4.447-5.348a3.753 3.753 0 00-3.363 1.852h-.04v-1.742h-2.098v13.942h2.167v-5.19h.05a3.586 3.586 0 003.323 1.834zm2.178-5.348c0-2.12-1.105-3.515-2.791-3.515-1.656 0-2.77 1.424-2.77 3.515 0 2.111 1.114 3.525 2.77 3.525 1.686 0 2.79-1.384 2.79-3.525zm9.445 5.348c2.65 0 4.407-2.092 4.407-5.348 0-3.246-1.767-5.348-4.447-5.348a3.753 3.753 0 00-3.363 1.852h-.04v-1.742h-2.098v13.942h2.168v-5.19h.05a3.586 3.586 0 003.323 1.834zm2.178-5.348c0-2.12-1.105-3.515-2.79-3.515-1.657 0-2.77 1.424-2.77 3.515 0 2.111 1.113 3.525 2.77 3.525 1.685 0 2.79-1.384 2.79-3.525zm23.483-7.718v2.48h2.009v1.703h-2.009v5.775c0 .898.403 1.316 1.285 1.316.239-.005.477-.021.713-.05v1.693a6 6 0 01-1.204.1c-2.138 0-2.971-.798-2.971-2.83v-6.004h-1.536v-1.703h1.535v-2.48h2.178zm8.179 2.35c-3.051 0-5.008 2.072-5.008 5.369 0 3.305 1.937 5.367 5.008 5.367 3.073 0 5.01-2.062 5.01-5.367 0-3.297-1.948-5.368-5.01-5.368zm2.803 5.369c0-2.262-1.045-3.596-2.801-3.596-1.757 0-2.8 1.345-2.8 3.596 0 2.27 1.043 3.594 2.8 3.594 1.756 0 2.801-1.324 2.801-3.595zm6.062-5.24h-2.067v10.477h2.167v-6.214a2.158 2.158 0 01.571-1.72 2.192 2.192 0 011.688-.69c.33-.01.659.034.974.13v-2.012a3.375 3.375 0 00-.743-.08 2.517 2.517 0 00-2.54 1.893h-.05v-1.783zm13.327 7.4c-.292 1.902-2.159 3.207-4.548 3.207-3.072 0-4.979-2.042-4.979-5.318 0-3.286 1.918-5.417 4.888-5.417 2.922 0 4.759 1.991 4.759 5.168v.736h-7.458v.13c-.07.78.202 1.552.745 2.12a2.763 2.763 0 002.096.848 2.39 2.39 0 002.438-1.474h2.059zm-2.047-3.127h-5.28a2.64 2.64 0 01.786-1.885 2.688 2.688 0 011.904-.774 2.548 2.548 0 011.88.768c.492.505.749 1.19.71 1.891zM71.5 9.763h1.036v7.245H71.5V9.763zM49.148 11.05a3.093 3.093 0 00-2.456-.947h-2.514v6.905h2.514c2.073 0 3.275-1.268 3.275-3.474a3.04 3.04 0 00-.819-2.484zm-2.576 4.982H45.26v-4.953h1.312c.654-.036 1.29.22 1.734.698.445.478.65 1.127.561 1.771a2.16 2.16 0 01-.552 1.784 2.197 2.197 0 01-1.743.7zm4.616-1.632a2.462 2.462 0 011.165-2.332 2.505 2.505 0 012.624 0 2.462 2.462 0 011.165 2.332c.091.935-.36 1.84-1.164 2.337a2.505 2.505 0 01-2.627 0 2.462 2.462 0 01-1.163-2.337zm2.48-1.79c.897 0 1.408.66 1.408 1.79 0 1.134-.511 1.794-1.409 1.794-.9 0-1.408-.655-1.408-1.794 0-1.13.507-1.79 1.408-1.79zm9.059 4.398H61.65l-1.085-3.838h-.082l-1.081 3.838h-1.065l-1.448-5.21h1.051l.941 3.975h.078l1.08-3.976h.994l1.08 3.976h.082l.936-3.976h1.037l-1.442 5.21zm3.658-5.21h-.997v5.21h1.036V13.96a1.19 1.19 0 01.321-.947 1.21 1.21 0 01.933-.374c.767 0 1.134.417 1.134 1.254v3.115h1.036v-3.373a1.686 1.686 0 00-.44-1.403 1.715 1.715 0 00-1.378-.535 1.574 1.574 0 00-1.567.928h-.078v-.828zm8.758.27a2.463 2.463 0 00-1.165 2.332 2.465 2.465 0 001.163 2.337 2.506 2.506 0 002.627 0 2.463 2.463 0 001.164-2.337 2.463 2.463 0 00-1.165-2.332 2.506 2.506 0 00-2.624 0zm2.721 2.332c0-1.13-.511-1.79-1.409-1.79-.9 0-1.408.66-1.408 1.79 0 1.139.507 1.794 1.408 1.794.898 0 1.41-.66 1.41-1.794zm4.112-.421c-1.25.077-1.953.617-1.953 1.555.001.445.193.868.526 1.165a1.6 1.6 0 001.224.395 1.771 1.771 0 001.578-.819h.082v.733h.998v-3.56c0-1.101-.743-1.751-2.06-1.751-1.191 0-2.04.574-2.146 1.469h1.004c.115-.369.516-.58 1.095-.58.708 0 1.075.311 1.075.862v.45l-1.423.08zm1.422 1.11v-.436l-1.283.082c-.723.048-1.051.292-1.051.751 0 .47.41.742.974.742a1.24 1.24 0 001.36-1.139zm4.576-3.378c-1.328 0-2.18 1.043-2.18 2.69 0 1.65.843 2.693 2.18 2.693a1.826 1.826 0 001.649-.91h.082v.824h.993V9.763h-1.036v2.862h-.078a1.734 1.734 0 00-1.61-.914zm-1.11 2.69c0 1.104.524 1.77 1.402 1.77.874 0 1.414-.675 1.414-1.766 0-1.086-.546-1.77-1.414-1.77-.872 0-1.403.67-1.403 1.765zm9.287-2.333a2.462 2.462 0 00-1.165 2.332c-.092.935.36 1.84 1.163 2.337a2.505 2.505 0 002.627 0A2.461 2.461 0 0099.94 14.4a2.462 2.462 0 00-1.165-2.332 2.505 2.505 0 00-2.624 0zm2.723 2.332c0-1.13-.511-1.79-1.409-1.79-.9 0-1.408.66-1.408 1.79 0 1.139.507 1.794 1.408 1.794.898 0 1.41-.66 1.41-1.794zm3.455-2.603h-.998v5.21h1.036V13.96a1.19 1.19 0 01.321-.947 1.21 1.21 0 01.933-.374c.767 0 1.134.417 1.134 1.254v3.115h1.036v-3.373a1.685 1.685 0 00-.439-1.403 1.716 1.716 0 00-1.379-.535 1.574 1.574 0 00-1.567.928h-.077v-.828zm9.321-1.297v1.321h1.138v.866h-1.138v2.68c0 .545.226.784.742.784.133 0 .265-.008.396-.023v.856c-.186.033-.375.05-.564.053-1.153 0-1.612-.403-1.612-1.407v-2.943h-.834v-.866h.834V10.5h1.038zm3.58-.737h-1.027v7.245h1.037v-3.043c-.033-.358.096-.711.351-.966s.61-.385.971-.355c.732 0 1.123.421 1.123 1.253v3.11h1.038v-3.363a1.71 1.71 0 00-.444-1.394 1.737 1.737 0 00-1.365-.549 1.619 1.619 0 00-1.602.934h-.082V9.763zm9.537 5.838a2.133 2.133 0 01-2.276 1.507 2.394 2.394 0 01-1.841-.787 2.354 2.354 0 01-.585-1.902 2.39 2.39 0 01.584-1.91 2.432 2.432 0 011.837-.812c1.462 0 2.343.99 2.343 2.626v.36h-3.708v.057c-.033.386.1.769.366 1.053.266.284.641.444 1.032.44.507.06 1.001-.19 1.25-.632h.998zm-.994-1.68h-2.653a1.326 1.326 0 01.394-.959c.256-.254.604-.395.966-.39.358-.008.702.134.948.39.246.258.372.606.345.96zM29.577 10.09a5.609 5.609 0 01-1.3 4.04 4.796 4.796 0 01-3.775 1.77 5.339 5.339 0 011.334-3.889 5.798 5.798 0 013.741-1.92zm4.635 8.596a5.717 5.717 0 00-2.749 4.805 5.533 5.533 0 003.405 5.09 12.645 12.645 0 01-1.771 3.579c-1.043 1.548-2.137 3.06-3.873 3.089-.826.018-1.383-.217-1.964-.463-.606-.256-1.237-.522-2.225-.522-1.047 0-1.707.275-2.343.54-.55.23-1.082.452-1.832.483-1.653.06-2.917-1.652-3.998-3.186-2.16-3.132-3.843-8.826-1.588-12.7a6.206 6.206 0 015.218-3.157c.937-.02 1.837.34 2.626.654.603.24 1.142.454 1.583.454.387 0 .91-.206 1.52-.446.962-.378 2.137-.841 3.335-.716a5.922 5.922 0 014.656 2.496z" fill="#fff"/></svg>