<svg width="153" height="48" fill="none" xmlns="http://www.w3.org/2000/svg"><rect x=".429" width="152" height="48" rx="6.692" fill="#000"/><path fill-rule="evenodd" clip-rule="evenodd" d="M56.384 27.603v1.816h4.409a3.785 3.785 0 01-1.02 2.291 4.539 4.539 0 01-3.4 1.332c-2.705 0-4.898-2.168-4.898-4.844 0-2.675 2.193-4.843 4.899-4.843a4.724 4.724 0 013.337 1.302l1.296-1.282a6.457 6.457 0 00-4.623-1.887 6.765 6.765 0 00-6.06 3.255 6.605 6.605 0 000 6.82 6.765 6.765 0 006.06 3.255 6.16 6.16 0 004.705-1.867 6.015 6.015 0 001.592-4.258 5.863 5.863 0 00-.102-1.14l-6.195.05zm11.319-1.322c-2.394.006-4.331 1.928-4.328 4.296.004 2.367 1.947 4.284 4.342 4.282 2.394-.002 4.334-1.922 4.334-4.289a4.204 4.204 0 00-1.26-3.058 4.302 4.302 0 00-3.098-1.23h.01zm5.185 4.302c-.008-2.366 1.924-4.29 4.317-4.302a4.302 4.302 0 013.099 1.23 4.204 4.204 0 011.259 3.059c0 2.366-1.938 4.285-4.331 4.289-2.393.003-4.337-1.91-4.344-4.276zm1.757 1.116a2.638 2.638 0 002.56 1.474 2.524 2.524 0 001.78-.79c.46-.49.702-1.144.669-1.813a2.604 2.604 0 00-1.673-2.418 2.654 2.654 0 00-2.888.651 2.58 2.58 0 00-.448 2.895zm-9.509.007a2.638 2.638 0 002.567 1.467h-.01a2.524 2.524 0 001.78-.79c.46-.49.702-1.144.669-1.813a2.604 2.604 0 00-1.676-2.418 2.654 2.654 0 00-2.89.656 2.581 2.581 0 00-.44 2.898zm33.778-5.425a4.077 4.077 0 013.715 2.735l.214.454-5.807 2.372a2.207 2.207 0 002.102 1.301 2.485 2.485 0 002.133-1.19l1.48 1.009a4.33 4.33 0 01-3.613 1.897 4.27 4.27 0 01-3.075-1.24 4.173 4.173 0 01-1.232-3.049 4.01 4.01 0 011.102-3.019 4.105 4.105 0 012.98-1.27zm-2.205 4.168a2.335 2.335 0 01.6-1.722 2.39 2.39 0 011.666-.78 1.687 1.687 0 011.612.908l-3.878 1.594zm-2.807 4.157h-1.909V21.993h1.909v12.613zM88.87 27.24h-.071a3.078 3.078 0 00-2.287-1.009c-2.316.111-4.137 2-4.137 4.294 0 2.293 1.82 4.182 4.137 4.294a2.975 2.975 0 002.287-1.01h.06v.616c0 1.645-.887 2.523-2.316 2.523a2.397 2.397 0 01-2.184-1.524l-1.664.686a4.134 4.134 0 003.848 2.533c2.235 0 4.082-1.302 4.082-4.47v-7.64H88.87v.707zm-2.187 5.933h.004-.01.006zm1.72-.809a2.44 2.44 0 01-1.72.81c-1.363-.121-2.408-1.25-2.408-2.604 0-1.355 1.047-2.485 2.412-2.604a2.46 2.46 0 011.713.82 2.4 2.4 0 01.603 1.784 2.385 2.385 0 01-.6 1.794zm23.167-10.371h-4.562v12.613h1.909v-4.783h2.664a3.984 3.984 0 003.674-1.872 3.887 3.887 0 000-4.087 3.984 3.984 0 00-3.674-1.871h-.011zm-2.665 6.054h2.664l.041.03c1.209 0 2.189-.969 2.189-2.164 0-1.195-.98-2.165-2.189-2.165h-2.705v4.3zm14.431-1.816a3.578 3.578 0 00-3.398 1.927l1.694.697a1.811 1.811 0 011.735-.929c.489-.056.981.084 1.365.39.384.305.627.75.676 1.235v.131a4.252 4.252 0 00-1.99-.484c-1.827 0-3.674 1.009-3.674 2.835a2.9 2.9 0 00.989 2.048 2.97 2.97 0 002.175.727 2.693 2.693 0 002.449-1.21h.061v1.008h1.838v-4.853c0-2.21-1.695-3.492-3.869-3.492l-.051-.03zm-1.725 5.842c0 .757.868 1.07 1.49 1.07l.051.03a2.296 2.296 0 002.235-2.018 3.416 3.416 0 00-1.735-.424c-.959 0-2.041.333-2.041 1.342zm12.341-5.54l-2.184 5.47h-.061l-2.266-5.47H127.4l3.398 7.65-1.939 4.248h1.99l5.226-11.897h-2.123zm-15.249 8.073h-1.908V21.993h1.908v12.613zM78.297 12.174a3.243 3.243 0 000 4.49 3.21 3.21 0 004.49 0 3.233 3.233 0 000-4.49 3.182 3.182 0 00-2.245-.925 3.18 3.18 0 00-2.245.925zM55.29 16.685c.524-.54.8-1.27.765-2.018 0-.152-.013-.304-.04-.454h-2.97v.727h2.214a1.896 1.896 0 01-.51 1.23 2.43 2.43 0 01-2.63.474 2.38 2.38 0 01-1.453-2.219 2.326 2.326 0 01.668-1.712 2.381 2.381 0 011.71-.71 2.05 2.05 0 011.674.717l.541-.535a2.521 2.521 0 00-.96-.676 3.194 3.194 0 00-1.255-.253 3.08 3.08 0 00-2.255.909 3.152 3.152 0 00-.693 3.45 3.215 3.215 0 002.948 1.969c.844.03 1.66-.297 2.246-.899zm2.686-4.541h2.756v-.747H57.16v6.055h3.573v-.747h-2.756v-1.917h2.51v-.727h-2.51v-1.917zm6.102 5.308h-.786v-5.308h-1.715v-.747h4.256v.747H64.08v5.308zm4.757-6.055v6.055h.785v-6.055h-.785zm4.276 6.055h-.786v-5.308h-1.714v-.747h4.205v.747h-1.705v5.308zm5.766-1.292c.92.906 2.407.906 3.328 0a2.562 2.562 0 000-3.472 2.377 2.377 0 00-3.328 0 2.562 2.562 0 000 3.472zm5.918-4.763v6.055h.796v-4.935l3.113 4.935h.817v-6.055h-.786v4.713l-2.98-4.713h-.96z" fill="#fff"/><path d="M78.297 16.664l-.188.18.006.005.182-.185zm0-4.49l-.183-.183-.005.004.188.179zm4.49 4.49l.182.185.005-.005-.187-.18zm0-4.49l.187-.18-.004-.003-.183.183zm-26.73 2.493h-.26v.012l.26-.012zm-.766 2.018l.185.18-.185-.18zm.724-2.472l.255-.046-.039-.213h-.216v.259zm-2.97 0v-.259h-.258v.259h.258zm0 .727h-.258v.258h.258v-.258zm2.215 0l.259.008.009-.267h-.268v.259zm-.51 1.23l.178.188.006-.005.005-.006-.19-.176zm-2.63.474l.101-.238-.101.238zm-1.453-2.219l.26.004-.001-.013-.259.009zm2.378-2.422v.259h.014l-.014-.259zm1.674.717l-.197.167.18.213.2-.197-.183-.183zm.541-.535l.182.184.173-.172-.16-.183-.195.17zm-.96-.676l-.1.238.005.002.096-.24zm-1.255-.253l-.005.26h.006v-.26zm-2.255.909l.182.183.002-.001-.184-.182zm-.693 3.45l-.238.099.238-.1zm2.948 1.969l.01-.26h-.008l-.002.26zm7.688-5.44v.258h.258v-.258h-.258zm-2.756 0v-.259h-.259v.259h.259zm2.756-.747h.258v-.259h-.258v.26zm-3.573 0v-.259h-.258v.26h.258zm0 6.055h-.258v.258h.258v-.258zm3.573 0v.258h.258v-.258h-.258zm0-.747h.258v-.259h-.258v.259zm-2.756 0h-.259v.259h.259v-.259zm0-1.917v-.26h-.259v.26h.259zm2.51 0v.258h.26v-.258h-.26zm0-.727h.26v-.259h-.26v.26zm-2.51 0h-.259v.259h.259v-.259zm5.316 3.39h-.259v.26h.259v-.26zm.786 0v.26h.259v-.26h-.26zm-.786-5.307h.259v-.259h-.26v.259zm-1.715 0h-.259v.258h.26v-.258zm0-.747v-.259h-.259v.26h.26zm4.256 0h.259v-.259h-.259v.26zm0 .747v.258h.259v-.258h-.259zm-1.755 0v-.259h-.259v.259h.259zm4.757 5.308h-.26v.258h.26v-.258zm0-6.055v-.259h-.26v.26h.26zm.785 6.055v.258h.26v-.258h-.26zm0-6.055h.26v-.259h-.26v.26zm2.705 6.055h-.258v.258h.258v-.258zm.786 0v.258h.259v-.258h-.259zm-.786-5.308h.259v-.259h-.259v.259zm-1.714 0h-.26v.258h.26v-.258zm0-.747v-.259h-.26v.26h.26zm4.205 0h.258v-.259h-.258v.26zm0 .747v.258h.258v-.258h-.258zm-1.705 0v-.259h-.259v.259h.26zm9.094 4.016l.181.184.01-.01-.192-.174zm-3.328 0l-.19.175.009.01.181-.185zm3.328-3.472l.19-.175-.009-.009-.181.184zm-3.328 0l-.181-.184-.01.01.191.175zm5.918 4.764h-.258v.258h.258v-.258zm0-6.055v-.259h-.258v.26h.258zm.796 6.055v.258h.26v-.258h-.26zm0-4.935l.22-.138-.478-.757v.895h.258zm3.113 4.935l-.218.138.076.12h.142v-.258zm.817 0v.258h.258v-.258h-.258zm0-6.055h.258v-.259h-.258v.26zm-.786 0v-.259h-.259v.26h.259zm0 4.713l-.219.138.478.755v-.893h-.26zm-2.98-4.713l.218-.138-.076-.12h-.142v.258zm-7.272 5.089a2.984 2.984 0 010-4.134l-.374-.357a3.501 3.501 0 000 4.848l.374-.357zm4.122-.006a2.952 2.952 0 01-4.128 0l-.363.369a3.469 3.469 0 004.854 0l-.363-.37zm-.005-4.127a2.974 2.974 0 010 4.132l.373.359a3.491 3.491 0 000-4.85l-.373.36zm-2.06-.845c.776 0 1.519.306 2.064.85l.365-.367a3.44 3.44 0 00-2.428-1v.517zm-2.062.85a2.923 2.923 0 012.063-.85v-.517a3.44 3.44 0 00-2.428 1l.365.366zm-22.681 2.321a2.458 2.458 0 01-.693 1.826l.372.36c.573-.591.876-1.39.838-2.21l-.517.024zm-.037-.42c.024.135.036.271.036.408h.518a2.79 2.79 0 00-.045-.5l-.51.092zm-2.716.213h2.97v-.518h-2.97v.518zm.26.468v-.727h-.518v.727h.517zm1.955-.26h-2.215v.518h2.215v-.517zm-.321 1.667c.356-.382.563-.878.58-1.399l-.517-.017c-.014.395-.17.772-.441 1.063l.378.353zm-2.921.535a2.688 2.688 0 002.91-.524l-.357-.374a2.17 2.17 0 01-2.35.422l-.203.476zm-1.61-2.46a2.639 2.639 0 001.61 2.46l.203-.476a2.122 2.122 0 01-1.295-1.977l-.517-.008zm.742-1.89a2.585 2.585 0 00-.741 1.902l.517-.018a2.068 2.068 0 01.593-1.521l-.369-.363zm1.897-.788a2.64 2.64 0 00-1.897.788l.37.363a2.12 2.12 0 011.524-.633l.003-.518zm1.87.808a2.31 2.31 0 00-1.886-.807l.028.516a1.796 1.796 0 011.463.626l.394-.335zm.161-.551l-.54.535.363.367.541-.534-.364-.368zm-.873-.252c.332.132.627.34.86.607l.39-.342a2.78 2.78 0 00-1.058-.746l-.192.481zm-1.159-.234c.397-.001.79.078 1.154.232l.201-.477a3.452 3.452 0 00-1.357-.272l.002.517zm-2.072.832a2.822 2.822 0 012.066-.832l.011-.517a3.338 3.338 0 00-2.445.985l.368.364zm-.638 3.168a2.894 2.894 0 01.636-3.167l-.365-.367a3.411 3.411 0 00-.748 3.733l.477-.199zm2.711 1.81a2.956 2.956 0 01-2.71-1.81l-.478.199a3.474 3.474 0 003.184 2.128l.004-.517zm2.058-.82a2.73 2.73 0 01-2.05.82l-.019.517a3.246 3.246 0 002.44-.976l-.37-.361zm5.628-4.62h-2.756v.518h2.756v-.518zm-.26-.488v.747h.518v-.747h-.517zm-3.313.259h3.573v-.518H57.16v.518zm.26 5.796v-6.055h-.518v6.055h.517zm3.313-.259H57.16v.517h3.573v-.517zm-.26-.488v.747h.518v-.747h-.517zm-2.496.259h2.756v-.518h-2.756v.518zm-.259-2.176v1.917h.518v-1.917h-.518zm2.77-.26h-2.511v.518h2.51v-.517zm-.26-.467v.727h.518v-.727h-.517zm-2.251.259h2.51v-.518h-2.51v.518zm-.259-2.176v1.917h.518v-1.917h-.518zm5.575 5.566h.786v-.517h-.786v.517zm-.259-5.566v5.308h.518v-5.308h-.518zm-1.456.258h1.715v-.517h-1.715v.518zm-.259-1.005v.747h.518v-.747h-.518zm4.515-.259h-4.256v.518h4.256v-.518zm.259 1.006v-.747h-.517v.747h.517zm-2.014.258h1.755v-.517H64.08v.518zm.259 5.05v-5.308h-.518v5.308h.518zm4.756 0v-6.055h-.517v6.055h.517zm.528-.259h-.786v.517h.785v-.517zm-.26-5.796v6.055h.518v-6.055h-.517zm-.526.259h.785v-.518h-.785v.518zm3.49 6.054h.786v-.517h-.786v.517zm-.258-5.566v5.308h.517v-5.308h-.517zm-1.456.258h1.714v-.517h-1.714v.518zm-.26-1.005v.747h.518v-.747h-.517zm4.465-.259h-4.205v.518h4.205v-.518zm.258 1.006v-.747h-.517v.747h.517zm-1.963.258h1.705v-.517h-1.705v.518zm.259 5.05v-5.308h-.518v5.308h.518zm8.653-1.477a2.118 2.118 0 01-2.964 0l-.363.37a2.635 2.635 0 003.69 0l-.363-.37zm-.01-3.112a2.303 2.303 0 010 3.122l.382.35a2.82 2.82 0 000-3.821l-.381.35zm-2.954.01a2.118 2.118 0 012.964 0l.363-.369a2.635 2.635 0 00-3.69 0l.363.369zm.009 3.112a2.303 2.303 0 010-3.122l-.381-.35a2.82 2.82 0 000 3.822l.38-.35zm5.986 1.467v-6.055h-.517v6.055h.517zm.537-.259h-.796v.517h.796v-.517zm-.258-4.676v4.935h.517v-4.935h-.517zm3.59 4.797l-3.113-4.935-.437.276 3.113 4.935.437-.276zm.598-.121h-.817v.517h.817v-.517zm-.259-5.796v6.055h.517v-6.055h-.517zm-.527.259h.786v-.518h-.786v.518zm.259 4.454v-4.713h-.518v4.713h.518zm-3.458-4.575l2.98 4.713.438-.277-2.98-4.712-.438.276zm-.74.12h.959v-.517h-.96v.518z" fill="#fff"/><path d="M18.315 11.942c-.333.394-.501.9-.47 1.412v22.322a2.003 2.003 0 00.47 1.413l.071.07 12.646-12.492v-.293L18.386 11.87l-.071.07z" fill="url(#paint0_linear)"/><path d="M35.216 28.834l-4.185-4.167v-.293l4.185-4.178.091.05 5.012 2.816c1.429.797 1.429 2.11 0 2.916l-4.991 2.806-.112.05z" fill="url(#paint1_linear)"/><path d="M35.34 28.774l-4.308-4.259L18.315 37.09a1.679 1.679 0 002.123.06l14.911-8.375" fill="url(#paint2_linear)"/><path d="M35.338 20.257L20.427 11.88a1.678 1.678 0 00-2.123.06L31.03 24.516l4.307-4.258z" fill="url(#paint3_linear)"/><path opacity=".2" d="M35.217 28.683l-14.79 8.325a1.72 1.72 0 01-2.04 0l-.072.07.072.071a1.71 1.71 0 002.04 0l14.912-8.376-.122-.09z" fill="#fff"/><path opacity=".12" fill-rule="evenodd" clip-rule="evenodd" d="M35.216 28.683l5.103-2.856a1.88 1.88 0 001.02-1.312 1.767 1.767 0 01-1.02 1.453l-5.011 2.806-.092-.091zM17.843 35.73c.017.444.182.872.472 1.216l.071.081-.071.07a2.004 2.004 0 01-.472-1.367zm0 0l.003-.045v-.151a2.012 2.012 0 00-.003.196z" fill="#fff"/><path opacity=".25" d="M20.427 12.024l19.892 11.181a1.88 1.88 0 011.02 1.312 1.766 1.766 0 00-1.02-1.453L20.427 11.883c-1.43-.797-2.593-.131-2.593 1.483v.152c.031-1.625 1.174-2.291 2.593-1.494z" fill="#fff"/><defs><linearGradient id="paint0_linear" x1="25.493" y1="-3.295" x2="5.275" y2="2.144" gradientUnits="userSpaceOnUse"><stop stop-color="#00A0FF"/><stop offset=".01" stop-color="#00A1FF"/><stop offset=".26" stop-color="#00BEFF"/><stop offset=".51" stop-color="#00D2FF"/><stop offset=".76" stop-color="#00DFFF"/><stop offset="1" stop-color="#00E3FF"/></linearGradient><linearGradient id="paint1_linear" x1="42.187" y1="14.222" x2="17.498" y2="14.222" gradientUnits="userSpaceOnUse"><stop stop-color="#FFE000"/><stop offset=".41" stop-color="#FFBD00"/><stop offset=".78" stop-color="orange"/><stop offset="1" stop-color="#FF9C00"/></linearGradient><linearGradient id="paint2_linear" x1="17.942" y1="17.984" x2="1.948" y2="45.194" gradientUnits="userSpaceOnUse"><stop stop-color="#FF3A44"/><stop offset="1" stop-color="#C31162"/></linearGradient><linearGradient id="paint3_linear" x1="8.383" y1="8.466" x2="15.522" y2="20.617" gradientUnits="userSpaceOnUse"><stop stop-color="#32A071"/><stop offset=".07" stop-color="#2DA771"/><stop offset=".48" stop-color="#15CF74"/><stop offset=".8" stop-color="#06E775"/><stop offset="1" stop-color="#00F076"/></linearGradient></defs></svg>