<svg width="174" height="44" viewBox="0 0 174 44" fill="none" xmlns="http://www.w3.org/2000/svg">
<path d="M0.0270996 43.7834C0.0270996 29.2428 0.0270996 14.7564 0.0270996 0.21582C14.5136 0.21582 28.946 0.21582 43.4325 0.21582C43.5406 0.864469 43.5947 41.1888 43.4866 43.7834C29.0541 43.7834 14.5676 43.7834 0.0270996 43.7834ZM27.8109 39.7293C27.8109 35.6753 27.8109 31.6753 27.8109 27.7293C27.2703 27.405 26.7298 27.0266 26.2433 26.7564C25.4325 26.3239 24.6217 25.8915 23.8649 25.405C23.0001 24.8645 22.1352 24.378 21.2163 23.8915C20.4595 23.4591 19.7568 23.0266 19.0001 22.6482C18.1352 22.1618 17.2703 21.6212 16.3514 21.1347C15.8649 20.8645 15.4325 20.6483 14.946 20.378C13.8109 19.6212 12.6217 19.0266 11.4325 18.2699C11.4325 13.5672 11.4325 8.86447 11.4325 4.16177C8.94602 4.16177 6.51359 4.16177 4.08115 4.16177C4.0271 4.21582 3.97305 4.26987 3.86494 4.37798C3.86494 16.1618 3.86494 27.9996 3.86494 39.7834C3.91899 39.8374 3.97305 39.8915 4.08115 39.9996C11.919 39.9996 19.7028 39.9996 27.5406 39.9996C27.6487 39.8374 27.7028 39.7834 27.8109 39.7293ZM39.4325 39.8915C39.4325 27.9455 39.4325 16.0537 39.4325 4.10771C37.0541 3.9996 32.6217 4.05366 32.0271 4.16177C32.0271 16.0537 32.0271 27.9996 32.0271 39.8915C34.5136 39.8915 37.0001 39.8915 39.4325 39.8915ZM15.7028 15.8915C16.1893 16.2158 16.7298 16.4861 17.2703 16.8104C18.1893 17.405 19.1622 17.9455 20.1352 18.4861C21.3244 19.1347 22.5136 19.8915 23.7028 20.5401C24.1352 20.7564 24.5676 20.9185 24.946 21.2428C25.8109 21.8374 26.7839 22.3239 27.7568 22.9185C27.7568 16.7023 27.7568 10.5401 27.7568 4.32393C27.7028 4.26987 27.5947 4.16177 27.5406 4.10771C23.8109 4.10771 20.0812 4.10771 16.3514 4.10771C16.2433 4.10771 16.0812 4.10771 15.973 4.10771C15.8649 4.16177 15.7568 4.21582 15.6487 4.26987C15.7028 8.10771 15.7028 11.9455 15.7028 15.8915Z" fill="white"/>
<path d="M93.2703 7.02683C94.1352 7.02683 95.0001 7.02683 95.8649 7.02683C95.8649 16.7566 95.8649 26.4322 95.8649 36.162C96.3514 36.1079 96.0812 35.6214 96.3514 35.4593C96.6757 34.3782 97.1082 33.3512 97.5406 32.2701C97.8109 31.6214 98.0271 31.0268 98.2433 30.3782C98.5136 29.6214 98.8379 28.8106 99.1622 28.0539C99.4325 27.3512 99.7028 26.6485 99.973 25.8917C100.135 25.4052 100.243 24.8647 100.514 24.3782C100.784 23.8376 100.892 23.2971 101.162 22.7566C101.378 22.2701 101.487 21.6755 101.703 21.189C102.135 20.216 102.405 19.189 102.838 18.2701C103.108 17.6755 103.324 17.0268 103.541 16.3782C103.757 15.8376 103.919 15.3512 104.081 14.8106C104.351 14.162 104.676 13.5133 104.838 12.8106C105.054 12.0539 105.378 11.3512 105.649 10.6485C105.919 9.94575 106.189 9.24305 106.46 8.5944C106.838 7.51332 107.27 6.48629 107.595 5.40521C107.865 4.64845 108.135 3.94575 108.46 3.18899C108.73 2.48629 109.054 1.78359 109.324 1.08088C109.433 0.756558 109.541 0.432235 109.649 0.10791C110.568 0.10791 111.487 0.10791 112.351 0.10791C111.973 1.56737 111.324 2.91872 110.784 4.32413C110.243 5.72953 109.703 7.13494 109.162 8.54034C108.676 9.72953 108.189 10.9187 107.811 12.162C107.595 12.9187 107.324 13.6214 107.054 14.3241C106.784 15.0268 106.46 15.7295 106.189 16.4322C105.811 17.5133 105.378 18.5403 105.054 19.6214C104.838 20.4322 104.46 21.189 104.135 21.9458C103.865 22.5944 103.595 23.2971 103.378 23.9457C103.162 24.4863 103 24.9728 102.838 25.5133C102.46 26.5403 102.027 27.5674 101.649 28.5944C101.27 29.5674 100.946 30.5944 100.514 31.5674C100.297 32.1079 100.135 32.7025 99.919 33.243C99.6487 33.9458 99.3784 34.5944 99.1082 35.2971C98.5136 36.8106 97.973 38.3782 97.3244 39.9457C96.8379 41.1349 96.4055 42.3241 96.0271 43.5133C96.0271 43.5674 95.919 43.6214 95.8649 43.6755C95.0001 43.6755 94.1352 43.6755 93.2703 43.6755C93.2703 34.0539 93.2703 24.4863 93.2703 14.8647H93.2163C93.0001 15.4593 92.7298 16.1079 92.5136 16.7025C92.3514 17.189 92.2433 17.7295 91.973 18.216C91.7028 18.8106 91.4866 19.4052 91.2703 19.9998C91.0541 20.5944 90.8379 21.243 90.6217 21.8376C90.2974 22.6485 90.0271 23.5133 89.6487 24.3241C89.3784 24.9187 89.1622 25.5674 88.946 26.216C88.7839 26.7025 88.6758 27.243 88.4055 27.7295C88.1352 28.3241 87.919 28.9187 87.7028 29.5133C87.4866 30.1079 87.2163 30.7025 87.0541 31.3512C86.7839 32.216 86.4055 32.9728 86.0812 33.8376C85.8109 34.4863 85.5947 35.0809 85.3784 35.7295C85.1622 36.2701 85.0001 36.7566 84.8379 37.2971C84.5676 38.0539 84.2974 38.7566 83.973 39.5133C83.5947 40.5403 83.2163 41.5133 82.8379 42.5403C82.6757 42.9187 82.5136 43.3512 82.3514 43.7836C81.5406 43.7836 80.7298 43.7836 79.8649 43.7836C79.7568 43.1349 79.7028 2.75656 79.8109 0.216019C80.6757 0.216019 81.4866 0.216019 82.4055 0.216019C82.4055 12.1079 82.4055 24.0539 82.4055 35.9998C82.4595 35.9998 82.4595 35.9998 82.5136 36.0539C82.5676 35.9458 82.5676 35.8917 82.6217 35.7836C82.6757 35.6755 82.6758 35.5674 82.7298 35.4593C83.1622 34.3782 83.5406 33.243 83.973 32.162C84.2433 31.5133 84.5136 30.8106 84.7298 30.162C84.892 29.6755 85.0541 29.1349 85.2703 28.6485C85.5406 27.9998 85.7568 27.2971 86.0271 26.6485C86.2974 25.9998 86.5136 25.2971 86.7839 24.6485C87.1622 23.6214 87.5406 22.6485 87.973 21.6214C88.1893 21.0809 88.3514 20.4863 88.5676 19.9457C88.892 19.1349 89.1622 18.2701 89.4866 17.4593C89.919 16.3241 90.2433 15.189 90.7839 14.1079C90.8379 13.4593 91.1622 12.9187 91.3785 12.3241C91.5947 11.4593 91.973 10.6485 92.2974 9.83764C92.5676 8.91872 92.892 7.9998 93.2703 7.02683Z" fill="white"/>
<path d="M143.216 27.4591C143.324 27.8374 143.379 28.2699 143.595 28.7023C143.973 29.5131 144.243 30.378 144.514 31.1888C144.838 32.0537 145.162 32.9185 145.487 33.7293C146.027 34.9726 146.46 36.2699 146.946 37.5672C147.379 38.7564 147.865 39.9996 148.243 41.2428C148.46 41.9455 148.784 42.7023 149.054 43.405C149.108 43.5131 149.108 43.6753 149.162 43.8374C148.189 43.8374 147.324 43.8374 146.406 43.8374C144.568 38.9185 142.73 33.9455 140.892 28.9185C140.676 28.9726 140.406 29.0266 140.243 29.1347C139.649 29.5672 138.946 29.8915 138.297 30.2699C137.433 30.7564 136.568 31.2428 135.703 31.7293C135.703 35.6753 135.703 39.6212 135.703 43.6212C134.838 43.6212 133.973 43.6212 133.054 43.6212C133.054 29.1888 133.054 14.7023 133.054 0.21582C133.865 0.21582 134.73 0.21582 135.595 0.21582C135.757 0.21582 135.919 0.269874 136.081 0.377982C137.108 1.08068 138.243 1.62123 139.27 2.26987C140.027 2.70231 140.784 3.18879 141.541 3.62123C142.351 4.05366 143.162 4.5942 143.973 5.02663C144.784 5.45906 145.487 5.94555 146.297 6.37798C146.838 6.70231 147.379 6.91852 147.865 7.24285C148.406 7.56717 148.892 7.8915 149.379 8.16177C149.379 13.4591 149.379 18.7023 149.379 23.8915C147.216 25.0266 145.216 26.2699 143.216 27.4591ZM135.649 3.24285C135.649 11.7293 135.649 20.1077 135.649 28.5942C135.757 28.5401 135.865 28.5401 135.919 28.4861C136.351 28.2699 136.784 27.9996 137.216 27.7293C137.595 27.5131 137.973 27.2969 138.351 27.0807C139.162 26.5942 139.973 26.1077 140.784 25.6212C141.324 25.2969 141.865 25.1347 142.351 24.7564C143.216 24.1618 144.189 23.7293 145.108 23.1347C145.595 22.8104 146.135 22.5401 146.622 22.2699C146.622 18.0537 146.622 13.8374 146.622 9.67528C146.297 9.2969 145.811 9.18879 145.487 8.97258C144.46 8.21582 143.27 7.67528 142.189 7.02663C141.324 6.48609 140.351 5.94555 139.433 5.45906C139 5.24285 138.568 5.08068 138.135 4.81041C137.324 4.26987 136.46 3.8915 135.649 3.24285Z" fill="white"/>
<path d="M121.973 0.21582C122.838 0.21582 123.703 0.21582 124.514 0.21582C124.568 0.269874 124.676 0.377981 124.73 0.432035C124.73 14.8645 124.73 29.351 124.73 43.7834C123.811 43.7834 122.892 43.7834 121.973 43.7834C121.973 40.8645 121.973 37.9456 121.973 34.9726C118.568 34.9726 115.27 34.9726 111.865 34.9726C111.216 36.378 110.784 37.8915 110.189 39.351C109.595 40.8104 109.054 42.2699 108.514 43.7834C107.541 43.7834 106.622 43.7834 105.649 43.7834C106.135 42.7564 106.459 41.6753 106.838 40.6483C107.216 39.6212 107.595 38.5942 107.973 37.5672C108.351 36.5942 108.676 35.5672 109.054 34.5942C109.324 33.9455 109.595 33.2428 109.811 32.5942C109.973 32.1077 110.135 31.5672 110.351 31.0807C110.838 29.8915 111.27 28.7023 111.703 27.5131C111.973 26.7564 112.297 25.9996 112.622 25.2428C112.892 24.5401 113.162 23.8374 113.432 23.0807C113.595 22.5942 113.703 22.0537 113.973 21.5672C114.243 20.9726 114.459 20.378 114.676 19.7834C114.892 19.1888 115.108 18.5401 115.324 17.9455C115.757 16.9726 116.081 15.9455 116.514 14.9185C116.946 13.8374 117.324 12.7564 117.649 11.6753C117.811 11.2428 117.973 10.7564 118.135 10.3239C118.676 9.08069 119 7.78339 119.595 6.5942C119.865 6.05366 120.027 5.45906 120.189 4.91852C120.514 4.10771 120.784 3.24285 121.108 2.43204C121.378 1.72933 121.649 0.972577 121.973 0.21582ZM112.838 32.1618C115.919 32.1618 118.892 32.1618 121.919 32.1618C122.027 29.4591 121.973 8.64825 121.865 7.94555C121.595 8.54014 121.378 9.13474 121.216 9.72933C121.054 10.2158 120.838 10.6483 120.676 11.1347C120.514 11.7834 120.243 12.378 120.027 13.0266C119.811 13.7293 119.541 14.432 119.216 15.0807C118.892 15.8915 118.568 16.7023 118.297 17.5672C118.135 18.1077 117.757 18.5942 117.757 19.1888C117.216 20.1077 117 21.0807 116.622 22.0537C116.297 22.8645 115.973 23.7293 115.703 24.5401C115.487 25.1347 115.27 25.7293 115.054 26.2699C114.676 27.2428 114.351 28.2699 113.919 29.2428C113.487 30.1618 113.162 31.1347 112.838 32.1618Z" fill="white"/>
<path d="M173.973 8.108C173.973 17.4053 173.973 26.5945 173.973 35.8377C173.649 36.0539 173.324 36.3242 172.946 36.5404C172.081 36.9729 171.27 37.4594 170.405 37.9458C169.541 38.4323 168.676 38.8648 167.865 39.4594C167.378 39.7837 166.784 39.9999 166.297 40.3242C165.486 40.8107 164.676 41.2972 163.865 41.7837C163.432 42.0539 163 42.2161 162.622 42.4864C161.919 42.9188 161.216 43.1891 160.568 43.7296C160.405 43.8377 160.135 43.8918 159.919 43.8918C159.162 43.8918 158.351 43.8918 157.541 43.8918C157.541 29.3512 157.541 14.8648 157.541 0.324219C158.405 0.324219 159.324 0.324219 160.243 0.324219C161 0.756651 161.757 1.18908 162.568 1.67557C163.324 2.108 164.135 2.54043 164.892 3.02692C165.27 3.29719 165.757 3.45935 166.135 3.72962C167.054 4.21611 167.973 4.75665 168.892 5.29719C169.973 5.94584 171.108 6.54043 172.189 7.24314C172.73 7.51341 173.324 7.78368 173.973 8.108ZM160.135 3.24314C160.135 15.7296 160.135 28.1621 160.135 40.5945L160.189 40.6485C160.189 40.6485 160.243 40.6485 160.243 40.7026C161 40.2702 161.811 39.8918 162.568 39.4053C163.432 38.8648 164.351 38.3242 165.27 37.8377C165.757 37.5675 166.189 37.3512 166.676 37.081C167.486 36.5404 168.351 36.0539 169.216 35.6215C169.919 35.2431 170.622 34.7566 171.27 34.3783C171.27 26.108 171.27 17.9458 171.27 9.72962C170.459 9.29719 169.649 8.91881 168.892 8.43233C168.513 8.16206 168.081 7.99989 167.703 7.72962C166.892 7.24314 166.135 6.75665 165.324 6.32422C164.513 5.89179 163.757 5.4053 162.946 4.97287C162.027 4.43233 161.108 3.94584 160.135 3.24314Z" fill="white"/>
<path d="M68.5675 27.351C67.3243 27.351 66.0811 27.4591 64.9459 27.351C62.8378 27.1347 60.7297 27.2428 58.6216 27.2428C56.5135 27.1888 54.4054 27.2428 52.2432 27.2428C52.1892 27.2428 52.1351 27.2428 52.0811 27.1888C52.0811 18.2158 52.0811 9.24285 52.0811 0.269874C52.9459 0.269874 53.8108 0.269874 54.6756 0.269874C54.6756 8.26987 54.6756 16.2158 54.6756 24.2699C59.2702 24.2699 63.8648 24.2699 68.5135 24.2699C68.5135 16.3239 68.5135 8.37798 68.5135 0.486091C68.6216 0.377982 68.6756 0.323928 68.7838 0.21582C69.5405 0.21582 70.3513 0.21582 71.1081 0.21582C71.1621 0.269874 71.2702 0.377981 71.3243 0.432035C71.3243 14.8104 71.3243 29.1888 71.3243 43.6212C71.2702 43.6753 71.2162 43.7293 71.1081 43.8374C70.3513 43.8374 69.5405 43.8374 68.7297 43.8374C68.6756 43.7834 68.6216 43.7293 68.5675 43.6753C68.5675 38.2158 68.5675 32.8104 68.5675 27.351Z" fill="white"/>
</svg>
