<svg width="181" height="43" viewBox="0 0 181 43" fill="none" xmlns="http://www.w3.org/2000/svg">
<g clip-path="url(#clip0_68_966)">
<path fill-rule="evenodd" clip-rule="evenodd" d="M30.7269 20.2685L30.6676 20.2226C31.9878 18.2871 32.648 15.9332 32.648 13.1605C32.648 9.04775 31.2617 5.8253 28.4891 3.49317C25.7163 1.16103 21.9007 -0.0033556 17.0419 7.26324e-06H4.94125V1.72263H16.8241C20.9533 1.72263 24.637 2.65834 26.974 4.59787C29.1475 6.40371 29.9446 7.95736 30.5809 10.2828C29.9348 8.16166 28.4123 6.79718 27.4666 5.99514C25.8104 4.5777 23.7532 3.58649 18.1486 3.58649H8.81556V5.26624H17.9406C22.7233 5.26624 24.4786 5.86649 26.0877 7.07964C28.1475 8.63328 29.4249 10.4896 29.4249 13.1681C29.4249 15.5818 28.593 16.8732 27.1968 18.2123C27.0334 18.1468 26.8701 18.0838 26.7017 18.0233L26.8601 17.9374C28.3727 17.0876 29.4199 15.4557 29.4199 13.1605C29.4199 10.6535 28.0088 9.0873 26.6274 8.20454C25.3328 7.37728 24.0998 6.82241 18.8392 6.82241H12.1304V7.94222H18.651C23.3992 7.94222 25.199 8.80228 25.7436 9.14277C26.8106 9.80862 28.2193 10.9638 28.2193 13.1782C28.2193 14.5906 27.3998 16.2905 26.1892 16.9841C25.7961 17.2058 25.3812 17.3851 24.9515 17.5188C23.1493 17.1028 21.3058 16.9013 19.4581 16.9185H11.3654V18.6411H19.2353C23.3645 18.6411 27.1026 19.5062 29.3852 21.5164C31.1082 23.009 32.3617 24.9851 32.9897 27.1987C32.3461 25.0776 31.024 23.7914 29.8778 22.9112C28.1449 21.5769 26.1645 20.4999 20.5598 20.5026H7.87237V22.1822H20.3518C25.1346 22.1822 26.8874 22.7825 28.4989 23.9957C30.5587 25.5494 31.8162 27.4056 31.8162 30.0842C31.8162 32.6668 30.5388 34.5508 28.4692 36.1045C26.3525 37.6935 23.117 37.7414 21.8001 37.7414H14.8684V39.4186H20.0498C24.387 39.4186 27.2835 39.0403 29.7912 37.1486C32.143 35.368 33.3931 33.0653 33.3931 30.0866C33.4161 31.6829 33.0793 33.2631 32.409 34.7059C31.7387 36.1487 30.7525 37.4158 29.5264 38.4097C27.1523 40.4073 22.9166 41.2875 18.6783 41.2875H5.03533V43H18.7748C23.8911 43 27.8841 41.8685 30.7542 39.6051C33.6242 37.342 35.0609 34.1624 35.0642 30.0665C35.0543 25.9487 33.6622 22.7253 30.888 20.3966C30.8352 20.3522 30.7812 20.3104 30.7269 20.2685ZM30.9712 13.38C30.9662 15.4605 30.3519 17.4939 29.2045 19.2187C29.0585 19.133 28.9099 19.0498 28.7614 18.9665C30.1716 17.4575 30.9605 15.4583 30.9712 13.38ZM22.4657 27.6527H10.5731V28.5904H22.4657V27.6527ZM15.4773 31.0652H22.3941V31.8693H15.4773V31.0652ZM8.54341 27.6527H5.02065V28.5904H8.54341V27.6527ZM2.82444 30.9996H13.5239V31.9372H2.82444V30.9996ZM12.8926 38.1574H2.82444V39.2816H12.8926V38.1574ZM5.46109 7.08473H9.62995V7.85854H5.46109V7.08473ZM12.1054 13.2388H2.55709V14.1386H12.1054V13.2388ZM6.60706 10.4896H22.4162V11.3894H6.60706V10.4896ZM22.1168 13.2388H14.5118V14.1386H22.1168V13.2388ZM31.8014 30.0691C31.8014 32.2357 30.7739 33.8574 29.2589 34.677C27.7488 35.4917 25.61 35.9609 21.9932 35.9609H0V34.894H21.8941C25.2311 34.894 27.474 34.3467 28.5781 33.7363C29.7912 33.0629 30.6106 31.4261 30.6106 30.0641C30.6106 27.9328 29.2021 26.8105 28.1351 26.1673C27.5904 25.8395 25.7881 25.0097 21.0425 25.0097H12.6898V23.9429H21.2381C26.5952 23.9429 27.7315 24.4801 29.0288 25.2771C30.4101 26.132 31.8014 27.6504 31.8014 30.0691ZM74.2999 11.0848C73.675 11.1023 73.0631 10.9001 72.567 10.5123C72.3433 10.347 72.1617 10.1295 72.0372 9.87813C71.9127 9.62673 71.8492 9.34865 71.8516 9.06709C71.8492 8.78412 71.9127 8.5046 72.0371 8.25158C72.1615 7.99855 72.3431 7.77927 72.567 7.6118C73.0602 7.21766 73.6735 7.01238 74.2999 7.03173C74.9363 7.01232 75.5598 7.2172 76.0651 7.6118C76.2914 7.77488 76.476 7.99092 76.6034 8.24172C76.7307 8.49253 76.7972 8.77082 76.7972 9.05324C76.7972 9.33564 76.7307 9.61392 76.6034 9.86474C76.476 10.1156 76.2914 10.3315 76.0651 10.4946C75.5619 10.8945 74.9378 11.1032 74.2999 11.0848ZM76.1467 35.5143H72.3615V16.0307H76.1467V35.5143ZM47.6701 35.5143V8.22974H57.0773C59.9374 8.22974 62.2059 8.80648 63.8827 9.95994C65.5596 11.1134 66.3979 12.6166 66.3979 14.4695C66.4183 15.9641 65.873 17.409 64.8754 18.5049C63.8604 19.6484 62.4577 20.4605 60.667 20.9413V21.017C62.8966 21.2322 64.6806 21.9266 66.0191 23.1002C66.6712 23.6589 67.1905 24.3609 67.5382 25.1532C67.8859 25.9456 68.053 26.8079 68.0269 27.6754C68.0269 30.0109 67.0118 31.9009 64.9819 33.3453C62.952 34.7896 60.3938 35.5126 57.3076 35.5143H47.6701ZM51.5468 11.1226V19.9325H55.5077C57.6302 19.9325 59.2988 19.5122 60.5134 18.6714C61.095 18.2887 61.569 17.7584 61.8887 17.1327C62.2086 16.5071 62.3634 15.8076 62.3379 15.1026C62.3379 12.4526 60.2229 11.1277 55.9931 11.1277L51.5468 11.1226ZM51.5468 22.8052V32.6239H56.8075C59.0834 32.6239 60.8484 32.18 62.1028 31.2922C62.6972 30.8981 63.1824 30.3551 63.512 29.7153C63.8414 29.0754 64.004 28.3599 63.9843 27.6376C63.9843 24.4177 61.3229 22.8069 56.0005 22.8052H51.5468ZM89.3464 35.9331C90.8088 35.9348 91.9854 35.7321 92.8767 35.3253L92.8841 32.6619C92.1344 33.1088 91.2768 33.3325 90.4084 33.3075C89.1608 33.3075 88.268 33.0285 87.7299 32.4702C87.1919 31.912 86.9228 30.9797 86.9228 29.6731V18.6943H92.8767V16.0309H86.9228V10.2652L83.1402 11.2741V16.0309H79.0777V18.6943H83.1402V30.2255C83.1386 34.0305 85.2073 35.9331 89.3464 35.9331ZM127.245 35.5143H123.7V18.6766C123.718 17.0449 123.817 15.415 123.997 13.7936H123.913C123.686 14.6323 123.38 15.4465 122.999 16.225L112.602 35.5143H110.869L100.489 16.3663C100.096 15.5439 99.79 14.6816 99.5753 13.7936H99.4912C99.6302 15.429 99.6873 17.0705 99.6621 18.7118V35.5143H96.2012V10.414H100.905L110.245 27.9176C110.794 28.8797 111.263 29.8871 111.646 30.9291H111.775C112.382 29.5521 112.87 28.5254 113.238 27.8496L122.769 10.414H127.225L127.245 35.5143ZM146.469 35.5143H150.254V22.8431C150.252 17.9972 147.475 15.5743 141.923 15.5743C138.892 15.5743 136.215 16.1829 133.892 17.4003V20.5984C136.158 19.0077 138.85 18.17 141.601 18.1999C144.846 18.2014 146.469 19.8569 146.469 23.1659L139.386 23.9856C134.185 24.5808 131.585 26.6985 131.585 30.339C131.565 31.1349 131.737 31.9237 132.084 32.6367C132.432 33.3497 132.946 33.9654 133.581 34.4298C134.912 35.4572 136.755 35.9709 139.109 35.9709C142.304 35.9726 144.727 34.8056 146.377 32.4701H146.469V35.5143ZM140.775 26.306L146.469 25.6602L146.483 27.5999C146.5 28.3825 146.344 29.1591 146.026 29.8719C145.709 30.5848 145.238 31.216 144.649 31.7185C143.426 32.803 141.876 33.3453 140 33.3453C138.633 33.3453 137.537 33.0443 136.712 32.4424C136.33 32.1913 136.017 31.8461 135.8 31.4387C135.584 31.0314 135.472 30.575 135.474 30.1118C135.483 28.8037 135.929 27.8932 136.814 27.3804C137.698 26.8676 139.019 26.5095 140.775 26.306ZM167.814 19.1884C167.155 18.7698 166.2 18.5605 164.953 18.5605C164.184 18.5477 163.42 18.7102 162.719 19.0361C162.019 19.3621 161.398 19.8433 160.903 20.4445C159.818 21.7004 159.277 23.413 159.277 25.5821V35.5143H155.494V16.0307H159.277V20.0484H159.37C159.855 18.7474 160.719 17.6286 161.846 16.8428C162.939 16.0798 164.235 15.6773 165.559 15.6902C166.322 15.6624 167.084 15.7526 167.82 15.9576V16.0309H171.256V11.2741L175.039 10.2652V16.0309H180.98V18.6943H175.039V29.6731C175.039 30.9797 175.308 31.912 175.846 32.4702C176.385 33.0285 177.277 33.3075 178.525 33.3075C179.392 33.3325 180.25 33.1088 181 32.6619L180.992 35.3253C180.101 35.7321 178.925 35.9348 177.463 35.9331C173.323 35.9331 171.255 34.0305 171.256 30.2255V18.6943H167.816L167.814 19.1884ZM0.314481 41.3001H2.83214V42.9309H0.314481V41.3001Z" fill="white"/>
</g>
<defs>
<clipPath id="clip0_68_966">
<rect width="181" height="43" fill="white"/>
</clipPath>
</defs>
</svg>
