<svg width="190" height="59" viewBox="0 0 190 59" fill="none" xmlns="http://www.w3.org/2000/svg">
<g clip-path="url(#clip0_332_141)">
<path fill-rule="evenodd" clip-rule="evenodd" d="M22.3529 7.17236C34.2289 7.17236 43.9418 16.4233 44.6629 28.1044L36.2545 28.1044C35.5536 21.0526 29.5972 15.5452 22.3529 15.5452C14.6372 15.5452 8.38235 21.7929 8.38235 29.4998C8.38235 37.2068 14.6372 43.4545 22.3529 43.4545C29.5971 43.4545 35.5535 37.9471 36.2545 30.8954L44.6629 30.8954C43.9417 42.5764 34.2289 51.8273 22.3529 51.8273C10.0078 51.8273 0 41.8309 0 29.4998C0 17.1687 10.0078 7.17236 22.3529 7.17236ZM101.937 23.904C106.651 23.904 110.205 27.9103 110.205 33.1818C110.205 38.4532 106.651 42.4595 101.937 42.4595C99.6852 42.4595 98.0668 41.6863 96.9409 40.3509V48.9961H91.1006V24.396H96.9409V26.0126C98.0668 24.6772 99.6852 23.904 101.937 23.904ZM68.7242 16.8403C73.2276 16.8403 77.2384 19.1246 79.3846 22.674L73.9312 25.8018C72.9813 24.0446 71.011 22.9903 68.7242 22.9903C64.7485 22.9903 62.1449 25.7315 62.1449 29.6675C62.1449 33.6035 64.7485 36.3446 68.7242 36.3446C71.011 36.3446 72.9813 35.2903 73.9312 33.4981L79.3846 36.6609C77.2384 40.2103 73.2628 42.4946 68.7242 42.4946C61.2654 42.4946 55.8824 36.9069 55.8824 29.6675C55.8824 22.428 61.2654 16.8403 68.7242 16.8403ZM141.659 23.904C146.901 23.904 151.052 27.9455 151.052 33.1818C151.052 38.4181 146.901 42.4595 141.659 42.4595C136.487 42.4595 132.265 38.4181 132.265 33.1818C132.265 27.9455 136.451 23.904 141.659 23.904ZM180.606 23.904C185.848 23.904 190 27.9455 190 33.1818C190 38.4181 185.848 42.4595 180.606 42.4595C175.434 42.4595 171.212 38.4181 171.212 33.1818C171.212 27.9455 175.399 23.904 180.606 23.904ZM87.723 24.396V41.9675H81.8826V24.396H87.723ZM118.578 17.3675V26.1532C119.564 24.7475 121.288 23.904 123.469 23.904C127.093 23.904 129.943 26.3992 129.943 31.4598V41.9675H124.102V32.1978C124.102 30.3 122.976 29.4215 121.463 29.4215C119.669 29.4215 118.578 30.5109 118.578 32.6195V41.9675H112.738V17.3675H118.578ZM159.461 16.3132V41.9675H153.621V16.3132H159.461ZM168.679 24.396V41.9675H162.839V24.396H168.679ZM22.3529 18.3361C28.5255 18.3361 33.5294 23.3343 33.5294 29.4998C33.5294 35.6654 28.5255 40.6635 22.3529 40.6635C16.6535 40.6635 11.9505 36.4023 11.263 30.8955L18.4003 30.8953C18.9757 32.5213 20.5281 33.6862 22.3529 33.6862C24.6677 33.6862 26.5441 31.8119 26.5441 29.4998C26.5441 27.1877 24.6677 25.3134 22.3529 25.3134C20.528 25.3134 18.9755 26.4784 18.4002 28.1045L11.2629 28.1043C11.9504 22.5974 16.6535 18.3361 22.3529 18.3361ZM100.635 29.3512C98.4538 29.3512 96.9409 30.8975 96.9409 33.1818C96.9409 35.4661 98.4538 37.0123 100.635 37.0123C102.816 37.0123 104.329 35.4661 104.329 33.1818C104.329 30.8975 102.816 29.3512 100.635 29.3512ZM141.659 29.5269C139.653 29.5269 138.14 31.0029 138.14 33.1818C138.14 35.3606 139.653 36.8366 141.659 36.8366C143.699 36.8366 145.212 35.3606 145.212 33.1818C145.212 31.0029 143.699 29.5269 141.659 29.5269ZM180.606 29.5269C178.601 29.5269 177.088 31.0029 177.088 33.1818C177.088 35.3606 178.601 36.8366 180.606 36.8366C182.647 36.8366 184.16 35.3606 184.16 33.1818C184.16 31.0029 182.647 29.5269 180.606 29.5269ZM84.8028 16.2429C86.6323 16.2429 88.1804 17.754 88.1804 19.5815C88.1804 21.4089 86.6323 22.9552 84.8028 22.9552C82.9733 22.9552 81.4252 21.4089 81.4252 19.5815C81.4252 17.754 82.9733 16.2429 84.8028 16.2429ZM165.759 16.2429C167.588 16.2429 169.136 17.754 169.136 19.5815C169.136 21.4089 167.588 22.9552 165.759 22.9552C163.929 22.9552 162.381 21.4089 162.381 19.5815C162.381 17.754 163.929 16.2429 165.759 16.2429Z" fill="white"/>
</g>
<defs>
<clipPath id="clip0_332_141">
<rect width="190" height="59" fill="white"/>
</clipPath>
</defs>
</svg>
