<svg width="207" height="48" viewBox="0 0 207 48" fill="none" xmlns="http://www.w3.org/2000/svg">
<path d="M30.0682 34.9271L21.4236 38.6424V38.2708C19.7567 38.6928 17.9103 38.9359 16.1613 39.0141C8.03151 38.9359 1.57859 34.7297 1.50349 29.7245V27.8664C4.17369 31.7049 9.60932 34.2767 16.1613 34.1838C18.3779 34.2767 20.6455 33.9299 22.5508 33.4406L23.3025 31.5825C21.0426 32.2491 18.5761 32.7129 16.1613 32.6974C8.03151 32.7129 1.57859 28.5067 1.50349 23.4086V21.9221C4.17369 25.4703 9.59771 28.0429 16.1613 27.8672C19.1141 28.0429 22.0019 27.429 24.4298 26.3807L24.806 24.5227C22.4339 25.7598 19.3595 26.4783 16.1613 26.3807C8.03151 26.4783 1.57859 22.2721 1.50349 17.0919V15.6055C4.17369 19.2364 9.60932 21.8083 16.1613 21.9221C19.8852 21.8083 23.4156 20.8352 26.3095 19.3208L26.6858 17.0911C24.0589 19.0158 20.2243 20.2561 16.1613 20.4357C8.03151 20.2561 1.57936 16.0491 1.50349 10.7753C1.57859 5.75924 8.03151 1.55304 16.1613 1.48646C21.0078 1.55304 25.509 3.23304 28.1893 5.94505L28.4502 6.37473L30.3454 6.38247L30.0682 5.94505C27.4027 2.36362 22.0716 0 16.1613 0C7.16596 0 0 4.90143 0 10.7753V30.0961C0.315872 35.8298 7.31848 40.4997 16.1613 40.4997C22.0019 40.4997 27.2509 38.229 30.0682 34.9271Z" fill="white"/>
<path d="M26.5529 47.9997L29.5878 35.2493L20.8633 38.9996L26.1744 16.8744H15.9316L18.5872 5.99914H51.209L48.5535 16.8744H37.933L35.6568 22.8745L47.4154 17.9993L26.5529 47.9997ZM31.864 32.624L30.3465 40.1245L42.8639 21.3748L32.6219 25.8753L37.1743 15.3747H47.4154L49.3122 7.49954H19.7252L17.8284 15.3747H28.0704L23.1387 36.375L31.864 32.6256V32.624ZM73.6826 13.1814C73.5928 14.4248 73.1337 15.4034 72.3053 16.1188C71.4769 16.8333 70.3853 17.1903 69.0304 17.1903C67.5494 17.1903 66.3827 16.6917 65.5341 15.6937C64.6848 14.6965 64.2598 13.327 64.2598 11.5858V10.8789C64.2598 9.76796 64.4557 8.78859 64.8474 7.94161C65.2392 7.09541 65.7989 6.44508 66.5259 5.99294C67.2536 5.54003 68.0991 5.31396 69.0629 5.31396C70.3961 5.31396 71.4707 5.67165 72.286 6.38624C73.1004 7.10005 73.5711 8.10342 73.6989 9.3948H71.3174C71.2594 8.64846 71.0511 8.10729 70.6942 7.77129C70.3365 7.43528 69.793 7.26728 69.0629 7.26728C68.2686 7.26728 67.6748 7.55142 67.2807 8.12046C66.8859 8.6895 66.6838 9.57209 66.673 10.7682V11.6415C66.673 12.8903 66.8627 13.8031 67.2405 14.3799C67.6198 14.9567 68.216 15.2455 69.0312 15.2455C69.7667 15.2455 70.3156 15.0775 70.6779 14.7415C71.041 14.4054 71.2485 13.8852 71.3012 13.1814H73.6826ZM85.9801 11.5146C85.9801 12.6526 85.7788 13.6498 85.3762 14.5069C84.9744 15.3647 84.3992 16.0259 83.6497 16.4919C82.9011 16.9572 82.0425 17.1903 81.074 17.1903C80.1163 17.1903 79.2615 16.9603 78.5098 16.4997C77.7588 16.039 77.1758 15.3817 76.7632 14.527C76.3505 13.6723 76.1415 12.689 76.1361 11.5773V11.0059C76.1361 9.86783 76.3412 8.86679 76.7516 8.002C77.1619 7.13644 77.741 6.47217 78.4904 6.00843C79.2391 5.54545 80.0954 5.31396 81.0585 5.31396C82.0216 5.31396 82.8778 5.54623 83.6265 6.00843C84.3752 6.47217 84.955 7.13644 85.3646 8.00123C85.7749 8.86679 85.9801 9.86551 85.9801 10.9982V11.5146ZM83.5669 10.9904C83.5669 9.77803 83.3501 8.8575 82.9166 8.2273C82.4822 7.59787 81.8629 7.28277 81.0585 7.28277C80.2587 7.28277 79.6424 7.594 79.2081 8.21568C78.7746 8.83737 78.5547 9.74861 78.55 10.9509V11.5146C78.55 12.6945 78.7668 13.6103 79.2004 14.2607C79.6339 14.9118 80.2587 15.2377 81.074 15.2377C81.8729 15.2377 82.4869 14.9242 82.9166 14.2971C83.3447 13.67 83.5615 12.7556 83.5669 11.5541V10.9904ZM91.4808 17.0315H89.0994V5.47268H91.4808V17.0315ZM104.326 17.0315H101.944L97.3082 9.42654V17.0315H94.9268V5.47268H97.3082L101.953 13.0939V5.47268H104.326V17.0315ZM116.116 7.40199H112.576V17.0315H110.194V7.40199H106.701V5.47268H116.116V7.40199ZM125.667 12.0224H121.094V15.1185H126.46V17.0315H118.712V5.47268H126.445V7.40199H121.094V10.1566H125.667V12.0224ZM131.478 15.1185H136.535V17.0315H129.096V5.47268H131.478V15.1193V15.1185ZM146.093 12.0217H141.521V15.1185H146.887V17.0315H139.139V5.47268H146.871V7.40199H141.521V10.1566H146.093V12.0217ZM158.669 15.5706C158.24 16.0839 157.633 16.4826 156.85 16.7652C156.067 17.0486 155.199 17.191 154.246 17.191C153.246 17.191 152.369 16.9719 151.615 16.5353C150.861 16.0986 150.279 15.4653 149.868 14.6338C149.458 13.8031 149.248 12.8268 149.237 11.705V10.9184C149.237 9.76487 149.432 8.76614 149.821 7.92226C150.21 7.07838 150.771 6.43192 151.503 5.9852C152.236 5.53771 153.095 5.31396 154.08 5.31396C155.45 5.31396 156.522 5.64068 157.295 6.29488C158.068 6.94831 158.525 7.89981 158.669 9.1486H156.35C156.245 8.48665 156.01 8.00278 155.648 7.69542C155.285 7.38883 154.786 7.23554 154.151 7.23554C153.341 7.23554 152.725 7.5398 152.301 8.14833C151.878 8.75685 151.664 9.6619 151.658 10.8635V11.6013C151.658 12.8137 151.889 13.7288 152.349 14.3482C152.809 14.9675 153.484 15.2772 154.373 15.2772C155.267 15.2772 155.906 15.0867 156.286 14.7058V12.713H154.119V10.9587H158.669V15.5706ZM166.115 12.8005H164.218V17.0315H161.836V5.47268H166.131C167.496 5.47268 168.55 5.77694 169.29 6.38624C170.032 6.99476 170.402 7.85413 170.402 8.96589C170.402 9.7548 170.231 10.4121 169.89 10.9386C169.548 11.465 169.031 11.8846 168.338 12.1966L170.838 16.9201V17.0315H168.282L166.115 12.8005ZM164.218 10.8712H166.138C166.737 10.8712 167.2 10.7187 167.528 10.4144C167.856 10.1102 168.02 9.69132 168.02 9.15634C168.02 8.6113 167.865 8.18239 167.556 7.87039C167.246 7.55838 166.771 7.40199 166.131 7.40199H164.217L164.218 10.8712ZM179.976 14.6493H175.8L175.007 17.0315H172.474L176.777 5.47268H178.984L183.31 17.0315H180.778L179.976 14.6493ZM176.444 12.7216H179.333L177.88 8.39375L176.444 12.7216ZM188.01 12.9592V17.0315H185.629V5.47268H190.138C191.006 5.47268 191.769 5.63139 192.428 5.94959C193.087 6.26701 193.594 6.7176 193.948 7.3029C194.303 7.88742 194.48 8.55324 194.48 9.29957C194.48 10.4322 194.093 11.3249 193.317 11.9783C192.542 12.6325 191.468 12.9592 190.098 12.9592H188.01ZM188.01 11.0299H190.138C190.768 11.0299 191.248 10.882 191.578 10.5855C191.91 10.289 192.075 9.86551 192.075 9.31583C192.075 8.74911 191.908 8.29078 191.575 7.94161C191.242 7.59322 190.781 7.41283 190.193 7.40199H188.01V11.0299ZM206.761 17.0315H204.38V12.0782H199.736V17.0315H197.354V5.47268H199.736V10.1566H204.38V5.47268H206.761V17.0315Z" fill="white"/>
<path d="M70.809 27.7388H68.234V34.8382H66.811V27.7388H64.2593V26.5822H70.809V27.7388ZM73.5806 29.3724C74.0304 28.8506 74.5994 28.5897 75.2877 28.5897C76.5961 28.5897 77.2588 29.336 77.2774 30.8294V34.8382H75.9001V30.8805C75.9001 30.457 75.8087 30.1574 75.6252 29.9817C75.4418 29.8059 75.1723 29.7185 74.817 29.7185C74.265 29.7185 73.8531 29.9639 73.5806 30.4547V34.8382H72.2025V26.1285H73.5806V29.3724ZM81.8366 34.9512C80.9633 34.9512 80.2557 34.6764 79.713 34.1267C79.1711 33.577 78.8993 32.8439 78.8993 31.9296V31.7592C78.8993 31.1468 79.0178 30.5995 79.2539 30.1179C79.4722 29.6561 79.8172 29.2657 80.2487 28.9923C80.6766 28.7236 81.1728 28.5839 81.6779 28.5897C82.5133 28.5897 83.1589 28.856 83.6142 29.3886C84.0694 29.9221 84.2978 30.6761 84.2978 31.6516V32.2075H80.2882C80.33 32.7138 80.4996 33.1141 80.7961 33.409C81.0926 33.704 81.4658 33.8519 81.9156 33.8519C82.5473 33.8519 83.0614 33.5964 83.4586 33.0854L84.2018 33.7946C83.9555 34.1619 83.6155 34.4568 83.217 34.6485C82.8067 34.8498 82.3468 34.9512 81.8366 34.9512ZM81.6725 29.6944C81.2939 29.6944 80.9889 29.8276 80.7566 30.0924C80.5244 30.3564 80.3757 30.7249 80.3115 31.1979H82.936V31.0957C82.9066 30.6343 82.7835 30.2859 82.5682 30.0498C82.3522 29.8137 82.0542 29.6944 81.6725 29.6944ZM89.6723 34.8382V29.7239H88.7363V28.7027H89.6723V28.1414C89.6723 27.4609 89.8612 26.9352 90.239 26.5651C90.6176 26.1943 91.1463 26.0093 91.8268 26.0093C92.0692 26.0093 92.3262 26.0433 92.5979 26.1115L92.5639 27.1892C92.39 27.1568 92.2135 27.1415 92.0367 27.1435C91.3786 27.1435 91.0503 27.4818 91.0503 28.1584V28.7027H92.2968V29.7239H91.0503V34.8382H89.6723ZM97.4854 34.2374C97.0813 34.7136 96.5061 34.9512 95.7613 34.9512C95.0963 34.9512 94.5923 34.7569 94.2509 34.3675C93.9087 33.9781 93.7376 33.4152 93.7376 32.6774V28.7027H95.1156V32.6604C95.1156 33.4392 95.4385 33.8294 96.0849 33.8294C96.7538 33.8294 97.206 33.5894 97.4398 33.1094V28.7027H98.8178V34.8382H97.5195L97.4854 34.2374ZM102.412 27.2116V28.7027H103.496V29.7239H102.412V33.1481C102.412 33.3827 102.459 33.5523 102.552 33.656C102.645 33.7598 102.81 33.8116 103.047 33.8116C103.207 33.8116 103.367 33.793 103.53 33.7551V34.8212C103.234 34.9054 102.929 34.9491 102.622 34.9512C101.564 34.9512 101.035 34.3675 101.035 33.1992V29.7231H100.026V28.7027H101.034V27.2124H102.412V27.2116ZM108.729 34.2374C108.324 34.7136 107.75 34.9512 107.005 34.9512C106.339 34.9512 105.836 34.7569 105.494 34.3675C105.152 33.9781 104.98 33.4152 104.98 32.6774V28.7027H106.359V32.6604C106.359 33.4392 106.682 33.8294 107.329 33.8294C107.997 33.8294 108.449 33.5894 108.683 33.1094V28.7027H110.061V34.8382H108.763L108.729 34.2374ZM115.142 29.9615C114.956 29.9311 114.768 29.9161 114.58 29.9166C113.949 29.9166 113.524 30.1582 113.305 30.6421V34.8382H111.927V28.7027H113.243L113.276 29.3886C113.609 28.856 114.07 28.5897 114.659 28.5897C114.856 28.5897 115.019 28.616 115.147 28.6686L115.142 29.9615ZM119.071 34.9512C118.198 34.9512 117.49 34.6764 116.947 34.1267C116.405 33.577 116.134 32.8439 116.134 31.9296V31.7592C116.134 31.1468 116.252 30.5995 116.488 30.1179C116.706 29.6561 117.051 29.2657 117.483 28.9923C117.911 28.7236 118.407 28.5839 118.912 28.5897C119.747 28.5897 120.393 28.856 120.848 29.3886C121.304 29.9221 121.532 30.6761 121.532 31.6516V32.2075H117.522C117.564 32.7138 117.734 33.1141 118.03 33.409C118.327 33.704 118.7 33.8519 119.15 33.8519C119.782 33.8519 120.296 33.5964 120.693 33.0854L121.436 33.7946C121.19 34.1619 120.85 34.4568 120.451 34.6485C120.041 34.8498 119.581 34.9512 119.071 34.9512ZM118.907 29.6944C118.528 29.6944 118.223 29.8276 117.991 30.0924C117.759 30.3564 117.61 30.7249 117.546 31.1979H120.17V31.0957C120.141 30.6343 120.018 30.2859 119.802 30.0498C119.586 29.8137 119.288 29.6944 118.907 29.6944ZM126.163 31.7136C126.163 31.1128 126.282 30.5716 126.521 30.0893C126.74 29.6286 127.088 29.2421 127.524 28.9775C127.955 28.719 128.45 28.5897 129.011 28.5897C129.838 28.5897 130.51 28.856 131.026 29.3886C131.542 29.9221 131.821 30.6289 131.862 31.5099L131.868 31.8328C131.868 32.4374 131.752 32.9786 131.52 33.4547C131.303 33.9135 130.956 34.2981 130.521 34.5603C130.088 34.8212 129.588 34.9512 129.022 34.9512C128.156 34.9512 127.463 34.6632 126.943 34.0872C126.424 33.5105 126.163 32.7417 126.163 31.7817V31.7136ZM127.541 31.8328C127.541 32.4645 127.672 32.9585 127.933 33.3154C128.193 33.673 128.556 33.8519 129.022 33.8519C129.486 33.8519 129.848 33.6699 130.107 33.3068C130.366 32.9445 130.496 32.4134 130.496 31.7136C130.496 31.0942 130.362 30.6026 130.096 30.2395C129.829 29.8764 129.467 29.6952 129.01 29.6952C128.561 29.6952 128.203 29.8733 127.938 30.231C127.674 30.5886 127.541 31.1213 127.541 31.8328ZM133.983 34.8382V29.7239H133.047V28.7027H133.983V28.1414C133.983 27.4609 134.172 26.9352 134.55 26.5651C134.929 26.1943 135.457 26.0093 136.138 26.0093C136.38 26.0093 136.637 26.0433 136.909 26.1115L136.875 27.1892C136.701 27.1568 136.525 27.1415 136.349 27.1435C135.69 27.1435 135.361 27.4818 135.361 28.1584V28.7027H136.609V29.7239H135.361V34.8382H133.983ZM142.732 28.7027L142.771 29.3437C143.202 28.8405 143.792 28.5897 144.54 28.5897C145.361 28.5897 145.922 28.9032 146.225 29.5311C146.671 28.9032 147.298 28.5897 148.107 28.5897C148.784 28.5897 149.288 28.7763 149.618 29.151C149.949 29.5249 150.118 30.0769 150.126 30.8062V34.8382H148.748V30.8465C148.748 30.457 148.663 30.1714 148.493 29.9902C148.322 29.8083 148.041 29.7177 147.649 29.7177C147.334 29.7177 147.078 29.8021 146.88 29.9701C146.678 30.1435 146.533 30.3735 146.463 30.6305L146.469 34.8382H145.091V30.8008C145.071 30.0792 144.704 29.7177 143.985 29.7177C143.433 29.7177 143.041 29.9422 142.812 30.3928V34.8382H141.433V28.7027H142.732ZM151.747 31.7143C151.747 31.1128 151.867 30.5716 152.104 30.0893C152.323 29.6285 152.672 29.242 153.108 28.9775C153.539 28.719 154.034 28.5897 154.594 28.5897C155.422 28.5897 156.094 28.856 156.609 29.3886C157.126 29.9221 157.404 30.6289 157.445 31.5099L157.452 31.8328C157.452 32.4374 157.335 32.9786 157.103 33.4547C156.886 33.9135 156.539 34.2981 156.104 34.5603C155.672 34.8212 155.172 34.9512 154.605 34.9512C153.739 34.9512 153.046 34.6632 152.527 34.0872C152.007 33.5105 151.747 32.7417 151.747 31.7817V31.7143ZM153.125 31.8328C153.125 32.4645 153.255 32.9585 153.516 33.3154C153.777 33.673 154.14 33.8519 154.605 33.8519C155.069 33.8519 155.432 33.6699 155.691 33.3068C155.95 32.9445 156.08 32.4134 156.08 31.7136C156.08 31.0942 155.946 30.6026 155.679 30.2395C155.413 29.8764 155.051 29.6952 154.594 29.6952C154.144 29.6952 153.787 29.8733 153.522 30.231C153.258 30.5886 153.125 31.1213 153.125 31.8328ZM160.36 28.7027L160.4 29.4119C160.853 28.8637 161.449 28.5897 162.186 28.5897C163.463 28.5897 164.114 29.3213 164.137 30.7837V34.8382H162.759V30.8635C162.759 30.4741 162.674 30.1853 162.506 29.9987C162.338 29.8114 162.063 29.7177 161.681 29.7177C161.126 29.7177 160.712 29.9693 160.439 30.4717V34.8382H159.061V28.7027H160.36ZM168.706 34.9512C167.834 34.9512 167.125 34.6764 166.583 34.1267C166.04 33.577 165.77 32.8439 165.77 31.9296V31.7592C165.77 31.1468 165.887 30.5995 166.123 30.1179C166.342 29.656 166.687 29.2656 167.119 28.9923C167.547 28.7238 168.042 28.584 168.547 28.5897C169.383 28.5897 170.028 28.856 170.484 29.3886C170.94 29.9221 171.167 30.6761 171.167 31.6516V32.2075H167.158C167.2 32.7138 167.369 33.1141 167.666 33.409C167.963 33.704 168.336 33.8519 168.786 33.8519C169.417 33.8519 169.932 33.5964 170.328 33.0854L171.071 33.7946C170.825 34.1618 170.485 34.4566 170.087 34.6485C169.677 34.8498 169.217 34.9512 168.706 34.9512ZM168.542 29.6944C168.164 29.6944 167.859 29.8276 167.626 30.0924C167.394 30.3564 167.245 30.7249 167.181 31.1979H169.806V31.0957C169.776 30.6343 169.654 30.2859 169.438 30.0498C169.222 29.8137 168.924 29.6944 168.542 29.6944ZM174.773 32.8648L176.021 28.7027H177.489L175.051 35.768C174.677 36.8 174.042 37.3164 173.146 37.3164C172.921 37.3128 172.698 37.2784 172.483 37.2142V36.1481L172.743 36.1652C173.091 36.1652 173.353 36.1017 173.529 35.9755C173.704 35.8485 173.844 35.6356 173.945 35.3376L174.144 34.8096L171.989 28.7027H173.475L174.773 32.8648Z" fill="white"/>
</svg>
