<svg width="197" height="41" viewBox="0 0 197 41" fill="none" xmlns="http://www.w3.org/2000/svg">
<path d="M7.29684 5.43933L0 10.2436V24.3347C0 32.0738 0.040203 38.4058 0.0804059 38.4058C0.14071 38.4058 1.76893 37.3605 3.69867 36.0941L7.23653 33.7623V26.6665V19.5707L10.9553 17.0982L14.6741 14.6257V7.63039C14.6741 3.7709 14.654 0.614972 14.6339 0.614972C14.5937 0.614972 11.297 2.78593 7.29684 5.43933Z" fill="white"/>
<path d="M156.387 2.88619C153.855 3.44903 152.226 4.79583 151.623 6.82608C150.94 9.19806 151.925 11.6102 154.015 12.6957C154.417 12.8967 155.945 13.339 157.433 13.6606C159.483 14.1229 160.187 14.3641 160.468 14.7059C161.272 15.6908 161.091 16.716 159.965 17.5603C159.563 17.8618 159.101 17.9623 158.056 17.9623C156.327 17.9824 154.98 17.5402 153.613 16.4949L152.548 15.6908L151.061 16.8366L149.573 18.0025L150.256 18.7061C152.548 21.0579 156.247 22.0027 160.006 21.2187C161.835 20.8368 162.8 20.3343 163.684 19.289C165.493 17.1985 165.453 14.0626 163.604 12.2736C162.599 11.3087 161.915 10.9871 159.483 10.3639C155.825 9.41918 155.985 9.49958 155.664 8.75583C154.659 6.32355 158.498 5.41898 161.674 7.32862L162.78 7.99197L164.046 6.82608L165.333 5.6803L164.83 5.13756C163.182 3.38873 159.101 2.28315 156.387 2.88619Z" fill="white"/>
<path d="M52.0642 12.173V21.1182H53.8733H55.6825L55.7227 17.4396L55.783 13.7811L59.4616 13.7208L63.12 13.6806V12.0725V10.4644L59.4616 10.4242L55.783 10.3639V8.55473V6.7456L59.8636 6.6853L63.9241 6.64509V4.93647V3.22784H57.9941H52.0642V12.173Z" fill="white"/>
<path d="M68.9492 12.173V21.1182H75.0802H81.2111V19.4095V17.7009H76.8893H72.5675V15.6908V13.6806H76.1858H79.804V12.0725V10.4644H76.1858H72.5675V8.55473V6.64509H76.5878H80.6081V4.93647V3.22784H74.7786H68.9492V12.173Z" fill="white"/>
<path d="M87.4409 12.173V21.1182H89.2501H91.0592L91.0994 15.0475L91.1597 8.97687L92.8884 11.5901C93.8332 13.0173 95.6423 15.7511 96.8886 17.6406L99.1601 21.1182H101.231H103.321V12.173V3.22784H101.512H99.7028L99.6626 9.19798L99.6023 15.1882L95.6423 9.19798L91.6823 3.22784H89.5516H87.4409V12.173Z" fill="white"/>
<path d="M110.156 12.1929V21.1582L115.241 21.0778C120.93 20.9974 121.111 20.9572 122.699 19.5099C123.785 18.5249 124.227 17.3389 124.227 15.5499C124.227 13.9016 123.905 13.1578 122.759 12.1326C121.835 11.3286 121.815 11.3286 122.217 10.9667C123.604 9.72046 123.865 7.85102 122.94 5.98158C122.377 4.79559 121.413 3.93123 120.227 3.5091C119.724 3.32819 118.096 3.24778 114.839 3.22768H110.156V12.1929ZM119.222 7.22787C120.086 8.09224 119.965 9.27823 118.92 10.1024C118.578 10.3838 118.076 10.4642 116.146 10.4642H113.774V8.55457V6.64493H116.206C118.618 6.64493 118.639 6.64493 119.222 7.22787ZM119 13.4392C119.985 13.9217 120.528 15.0474 120.207 15.9921C120.086 16.374 119.704 16.9168 119.382 17.1982C118.799 17.6806 118.659 17.7007 116.267 17.7007H113.774V15.5298C113.774 14.3237 113.834 13.2784 113.915 13.2181C113.975 13.1377 115 13.0774 116.166 13.0774C117.794 13.0774 118.458 13.1578 119 13.4392Z" fill="white"/>
<path d="M129.695 9.39879C129.755 15.3689 129.775 15.6303 130.238 16.7961C130.881 18.3641 132.368 19.932 133.997 20.736C137.715 22.5653 142.178 20.8968 143.967 16.9771C144.409 16.0323 144.429 15.7509 144.49 9.59981L144.55 3.22764H142.741H140.911V8.87615C140.911 12.615 140.831 14.8061 140.67 15.3287C140.168 16.9972 138.037 18.1831 136.328 17.7208C135.223 17.4394 134.66 17.0173 133.997 15.9921C133.514 15.2684 133.474 15.0272 133.474 12.9769C133.474 11.7708 133.414 9.07717 133.333 6.98661L133.213 3.22764H131.424H129.635L129.695 9.39879Z" fill="white"/>
<path d="M171.266 12.173V21.1182H173.075H174.884V17.2989V13.4796L178.562 13.5198L182.221 13.5801L182.281 17.3391L182.321 21.1182H184.131H185.94V12.173V3.22784H184.131H182.321L182.281 6.58479L182.221 9.96184L178.562 10.0221L174.884 10.0623V6.64509V3.22784H173.075H171.266V12.173Z" fill="white"/>
<path d="M192.773 12.173V21.1182H194.583H196.392V12.173V3.22784H194.583H192.773V12.173Z" fill="white"/>
<path d="M10.4905 26.6863L10.5508 33.6816L22.7122 36.0335C29.3859 37.32 34.8937 38.3653 34.9138 38.325C34.954 38.2848 31.8383 35.8727 27.9989 32.958C24.1595 30.0633 18.6316 25.8822 15.7169 23.6711L10.4503 19.691L10.4905 26.6863Z" fill="white"/>
<path d="M17.9523 7.48951L18.0126 14.4848L30.174 16.8367C36.8477 18.1232 42.3555 19.1685 42.3756 19.1283C42.4158 19.0881 39.3001 16.6759 35.4607 13.7612C31.6213 10.8666 26.0934 6.68545 23.1787 4.47429L17.9121 0.494196L17.9523 7.48951Z" fill="white"/>
<path d="M42.4035 12.1345L42.3025 5.1397L30.1276 2.85864C23.4466 1.61101 17.9328 0.597803 17.9129 0.638122C17.8729 0.678558 21.0026 3.07256 24.8589 5.96488C28.7151 8.8371 34.2672 12.986 37.1948 15.1801L42.4844 19.1295L42.4035 12.1345Z" fill="white"/>
<path d="M34.8701 31.3507L34.8212 24.3553L22.6636 21.9837C15.992 20.6864 10.4859 19.6322 10.4657 19.6724C10.4255 19.7125 13.5373 22.1297 17.3719 25.0507C21.2066 27.9515 26.7277 32.1416 29.6388 34.3575L34.899 38.3461L34.8701 31.3507Z" fill="white"/>
<path d="M55.9421 27.8724C54.7963 28.2946 53.55 29.561 52.9068 30.9279C52.4243 31.9329 52.364 32.3149 52.364 34.0838C52.3841 36.3754 52.7258 37.4005 53.952 38.7674C55.8014 40.7977 59.3593 41.0791 61.7514 39.3906C62.3746 38.9283 63.5203 37.3201 63.5203 36.8779C63.5203 36.7372 63.0178 36.4357 62.4148 36.2146C61.0881 35.712 61.1082 35.712 61.1082 36.0738C61.1082 36.5362 60.083 37.6418 59.3593 37.9232C57.9522 38.5262 56.2838 37.9835 55.4797 36.697C54.9772 35.8929 54.7561 34.124 54.9571 32.6767C55.2385 30.8676 57.0477 29.5409 58.8166 29.8826C59.7212 30.0434 60.6257 30.8073 60.9272 31.6515L61.1685 32.335L62.1936 31.9128C62.7565 31.6917 63.2992 31.4304 63.3997 31.35C63.8621 30.9279 62.1735 28.7971 60.8267 28.1137C59.7413 27.5508 57.1482 27.4302 55.9421 27.8724Z" fill="white"/>
<path d="M80.5064 27.9927C80.4461 28.1334 79.5013 30.9476 78.4158 34.2241L76.4258 40.2144H77.7726H79.1395L79.441 39.1691L79.7425 38.1037L82.1748 38.0434L84.6071 37.9831L84.9287 39.1088L85.2503 40.2144H86.5569C87.2605 40.2144 87.8434 40.1541 87.8434 40.0736C87.8434 39.9731 86.9389 37.179 85.8132 33.8422L83.7829 27.7514H82.1949C81.0893 27.7514 80.5667 27.8318 80.5064 27.9927ZM83.0995 33.0582C83.5015 34.3648 83.8231 35.5709 83.8231 35.7116C83.8231 35.9327 83.4211 35.993 82.0944 35.993C80.7878 35.993 80.3858 35.9327 80.4461 35.7317C80.5064 35.6111 80.8883 34.3447 81.3305 32.9376C81.7527 31.5305 82.1547 30.445 82.2351 30.5254C82.3155 30.6058 82.6974 31.7516 83.0995 33.0582Z" fill="white"/>
<path d="M101.914 33.9628V40.2144H103.12H104.326V38.0032V35.792H106.116C108.126 35.792 108.789 35.6111 109.613 34.8272C110.618 33.8824 111.02 32.8773 110.92 31.43C110.839 30.043 110.518 29.4802 109.271 28.4751L108.508 27.8519L105.211 27.7916L101.914 27.7112V33.9628ZM108.045 30.4651C108.407 30.8069 108.548 31.1687 108.548 31.7114C108.528 33.0984 107.804 33.5809 105.754 33.5809H104.326V31.7717V29.9626H105.935C107.402 29.9626 107.603 30.0229 108.045 30.4651Z" fill="white"/>
<path d="M125.031 33.9829V40.2144H126.238H127.444V33.9829V27.7514H126.238H125.031V33.9829Z" fill="white"/>
<path d="M141.112 28.9575V30.1636H142.921H144.73V35.189V40.2144H145.936H147.142V35.189V30.1636H148.851H150.559V28.9575V27.7514H145.835H141.112V28.9575Z" fill="white"/>
<path d="M165.055 33.8221C163.929 37.179 163.024 39.9731 163.024 40.0736C163.024 40.1541 163.607 40.2144 164.311 40.2144H165.618L165.959 39.1088L166.321 37.9831L168.733 38.0434L171.166 38.1037L171.467 39.149L171.769 40.2144H173.095H174.442L173.879 38.4454C173.558 37.4806 172.633 34.7065 171.829 32.2743L170.341 27.8519L168.713 27.7916L167.085 27.7313L165.055 33.8221ZM170.341 35.5106L170.462 35.993H168.753C167.467 35.993 167.045 35.9327 167.045 35.7317C167.045 35.4905 168.271 31.3697 168.593 30.5656C168.693 30.3244 169.899 33.7417 170.341 35.5106Z" fill="white"/>
<path d="M188.351 33.9829V40.2144H192.371H196.391V39.0083V37.8022H193.577H190.763V32.7768V27.7514H189.557H188.351V33.9829Z" fill="white"/>
</svg>
