<svg width="185" height="20" viewBox="0 0 185 20" fill="none" xmlns="http://www.w3.org/2000/svg">
<g clip-path="url(#clip0_3472_1853)">
<path d="M92.161 0.666692C86.9214 0.666692 82.6738 4.84536 82.6738 10C82.6738 15.1547 86.9214 19.3334 92.161 19.3334C95.0078 19.3334 97.5619 18.1 99.3008 16.1467L97.5158 14.6094C96.8487 15.3611 96.0256 15.9635 95.1019 16.3759C94.1782 16.7882 93.1754 17.0011 92.161 17C88.2313 17 85.0456 13.866 85.0456 10C85.0456 6.13403 88.2313 3.00003 92.161 3.00003C94.2956 3.00003 96.212 3.92536 97.5158 5.39069L99.3008 3.85403C98.4113 2.85175 97.3137 2.04865 96.0821 1.49884C94.8505 0.949033 93.5135 0.665278 92.161 0.666692ZM104.02 3.00003H109.949C114.693 3.00003 114.693 10 109.949 10H104.02V3.00003ZM109.949 0.666692H101.648V19.3334H104.02V12.3334H109.136L114.219 19.3334H117.065L111.821 12.1114C118.195 10.5014 117.571 0.666692 109.949 0.666692ZM124.18 12.3334V19.3334H126.552V12.3334L133.667 0.666692H130.821L125.366 10L119.911 0.666692H117.065L124.18 12.3334ZM138.411 3.00003H144.34C149.084 3.00003 149.084 10 144.34 10H138.411V3.00003ZM138.411 19.3334V12.3334H144.34C152.642 12.3334 152.642 0.666692 144.34 0.666692H136.039V19.3334H138.411ZM151.456 3.00003H157.385V19.3334H159.757V3.00003H165.687V0.666692H151.456V3.00003ZM168.058 10C168.058 6.13403 171.244 3.00003 175.174 3.00003C179.104 3.00003 182.289 6.13403 182.289 10C182.289 13.866 179.104 17 175.174 17C171.244 17 168.058 13.866 168.058 10ZM184.661 10C184.661 4.84536 180.413 0.666692 175.174 0.666692C169.934 0.666692 165.687 4.84536 165.687 10C165.687 15.1547 169.934 19.3334 175.174 19.3334C180.413 19.3334 184.661 15.1547 184.661 10Z" fill="#79828A"/>
<path d="M17.7885 8.75V20H10.1648C4.55114 20 0 15.5227 0 10C0 4.47733 4.55114 0 10.1648 0H17.7885V5H10.1648C8.81689 5 7.52416 5.52678 6.57102 6.46447C5.61789 7.40215 5.08242 8.67392 5.08242 10C5.08242 11.3261 5.61789 12.5979 6.57102 13.5355C7.52416 14.4732 8.81689 15 10.1648 15H12.706V8.75H17.7885ZM29.2239 15C30.5718 15 31.8646 14.4732 32.8177 13.5355C33.7709 12.5979 34.3063 11.3261 34.3063 10C34.3063 8.67392 33.7709 7.40215 32.8177 6.46447C31.8646 5.52678 30.5718 5 29.2239 5C27.876 5 26.5832 5.52678 25.6301 6.46447C24.677 7.40215 24.1415 8.67392 24.1415 10C24.1415 11.3261 24.677 12.5979 25.6301 13.5355C26.5832 14.4732 27.876 15 29.2239 15ZM29.2239 20C23.6102 20 19.0591 15.5227 19.0591 10C19.0591 4.47733 23.6102 0 29.2239 0C34.8376 0 39.3887 4.47733 39.3887 10C39.3887 15.5227 34.8376 20 29.2239 20ZM50.8242 15C52.1721 15 53.4649 14.4732 54.418 13.5355C55.3711 12.5979 55.9066 11.3261 55.9066 10C55.9066 8.67392 55.3711 7.40215 54.418 6.46447C53.4649 5.52678 52.1721 5 50.8242 5C49.4762 5 48.1835 5.52678 47.2304 6.46447C46.2772 7.40215 45.7418 8.67392 45.7418 10C45.7418 11.3261 46.2772 12.5979 47.2304 13.5355C48.1835 14.4732 49.4762 15 50.8242 15ZM50.8242 20C45.2105 20 40.6593 15.5227 40.6593 10C40.6593 4.47733 45.2105 0 50.8242 0C56.4379 0 60.989 4.47733 60.989 10C60.989 15.5227 56.4379 20 50.8242 20ZM67.342 5V15H69.8832C71.2312 15 72.5239 14.4732 73.4771 13.5355C74.4302 12.5979 74.9657 11.3261 74.9657 10C74.9657 8.67392 74.4302 7.40215 73.4771 6.46447C72.5239 5.52678 71.2312 5 69.8832 5H67.342ZM62.2596 20V0H69.8832C75.4969 0 80.0481 4.47733 80.0481 10C80.0481 15.5227 75.4969 20 69.8832 20H62.2596Z" fill="#79828A"/>
</g>
<defs>
<clipPath id="clip0_3472_1853">
<rect width="185" height="20" fill="white"/>
</clipPath>
</defs>
</svg>
