<svg width="155" height="46" viewBox="0 0 155 46" fill="none" xmlns="http://www.w3.org/2000/svg">
<g clip-path="url(#clip0_68_941)">
<path d="M77.5494 22.7538H88.9406V23.8253C86.2415 24.2407 85.2994 24.6574 85.2994 28.4037V40.4137C81.4266 42.9153 76.917 44.2182 72.3235 44.1627C59.4732 44.1627 51.2422 35.5431 51.2422 23.3545C51.2422 10.8668 60.6384 1.89007 73.7319 1.89007C79.1943 1.89007 83.4221 3.02112 87.0619 4.86248V11.523H85.9462C84.0087 6.16807 79.9573 3.66512 73.5555 3.66512C62.1643 3.66512 54.1712 11.8112 54.1712 23.1069C54.1712 34.822 62.0414 42.3728 72.9021 42.3728C76.4243 42.3728 79.7127 41.6571 82.6484 40.1675V28.4645C82.6484 24.6574 81.828 24.2407 77.5414 23.8321L77.5494 22.7538ZM92.2865 40.1161V33.1011H93.4022C95.7512 40.0525 100.097 42.3768 104.98 42.3768C109.735 42.3768 114.782 39.3449 114.782 33.7545C114.782 30.1287 112.666 28.0465 107.853 25.7857L101.863 22.9919C96.8122 20.6148 93.6988 17.3447 93.6988 12.4065C93.6988 6.7593 98.3395 1.8833 106.032 1.8833C110.083 1.8833 114.308 3.1916 116.895 4.79618V11.3985H115.778C113.901 5.44559 109.899 3.68001 105.738 3.68001C100.101 3.68001 96.2831 7.13001 96.2831 12.1251C96.2831 16.3462 98.9274 18.6043 102.977 20.447L109.026 23.2408C114.429 25.7397 117.364 28.5931 117.364 33.2905C117.364 39.5911 111.846 44.1695 104.732 44.1695C100.266 44.1755 95.9115 42.7573 92.2865 40.1161ZM155 43.5052V43.6838H151.418L131.395 22.5779H128.224V37.2032C128.224 42.0792 129.095 42.3768 131.925 42.6122V43.6838H121.881V42.6122C124.818 42.3768 125.583 42.0792 125.583 37.2032V9.20001C125.583 4.73936 124.93 3.78824 121.882 3.43107V2.36224H134.563C143.315 2.36224 148.894 6.16807 148.894 12.2861C148.894 18.2931 143.549 22.3952 135.093 22.6929L155 43.5052ZM128.222 20.792H134.036C141.729 20.792 146.015 17.7046 146.015 12.3469C146.015 7.17601 141.788 4.14407 134.096 4.14407H128.214L128.222 20.792Z" fill="white"/>
<path d="M22.6514 15.9026V0.79834H20.9744V15.9026C21.5312 15.832 22.0946 15.832 22.6514 15.9026ZM10.6723 3.8641L9.26125 4.7814L17.3186 17.4855C17.7518 17.1242 18.2259 16.8162 18.7309 16.5682L10.6723 3.8641ZM2.22612 13.0046L1.52862 14.5483L15.0951 20.8219C15.2662 20.2807 15.5 19.7625 15.7926 19.2795L2.22612 13.0032V13.0046ZM0 25.319L0.240517 26.9994L15.0016 24.8482C14.8584 24.2998 14.779 23.7363 14.7651 23.1692L0 25.319ZM15.973 27.0062L4.70345 36.8948L5.79246 38.176L17.066 28.2874C16.6536 27.9049 16.2871 27.4743 15.9744 27.0048L15.973 27.0062ZM14.8412 44.0613L16.4487 44.5403L20.6524 30.0503C20.0987 29.957 19.5581 29.7967 19.0423 29.5727L14.8412 44.0613ZM27.1945 44.5403L28.8046 44.0613L24.6116 29.5727C24.0956 29.7959 23.555 29.9558 23.0015 30.0489L27.1945 44.5389V44.5403ZM26.5718 28.2888L37.8427 38.1801L38.9424 36.8962L27.6608 27.0062C27.3496 27.4761 26.984 27.9067 26.5718 28.2888ZM28.6429 24.8496L43.4053 26.9994L43.6459 25.319L28.8781 23.1679C28.8647 23.7361 28.7872 24.3003 28.6429 24.8496ZM42.1159 14.5483L41.4197 13.0046L27.8519 19.2782C28.1459 19.7625 28.3797 20.2807 28.5494 20.8219L42.1159 14.5483ZM34.3819 4.78005L32.9709 3.8641L24.9122 16.5682C25.4168 16.8163 25.8905 17.1243 26.3233 17.4855L34.3819 4.78005ZM14.8412 1.93887L16.4514 1.46128L19.2147 10.9914L17.6045 11.4703L14.8412 1.93887ZM24.4312 10.9887L27.1931 1.45858L28.8033 1.93616L26.04 11.4663L24.4312 10.9887ZM4.70211 9.10134L5.80047 7.81875L13.2164 14.3264L12.1194 15.609L4.70211 9.10134ZM0 20.6785L0.237845 18.9981L9.9494 20.4119L9.71021 22.0923L0 20.6785ZM1.65823 31.4506L10.5881 27.2781L11.2923 28.8232L2.36241 32.9956L1.65823 31.4506ZM9.26392 41.2188L14.5687 32.8617L15.9797 33.779L10.675 42.1375L9.26392 41.2188ZM20.9825 35.2672H22.6594V45.1992H20.9825V35.2672ZM27.6635 33.7749L29.0759 32.8549L34.3806 41.2134L32.9696 42.1334L27.6635 33.7749ZM32.4965 28.8692L33.194 27.3255L42.1186 31.4519L41.4224 32.9983L32.4965 28.8692ZM33.6925 20.4146L43.404 19.0008L43.6432 20.6812L33.9316 22.095L33.6925 20.4146ZM30.4254 14.3278L37.8441 7.81875L38.9411 9.10269L31.5251 15.6103L30.4254 14.3278Z" fill="white"/>
</g>
<defs>
<clipPath id="clip0_68_941">
<rect width="155" height="46" fill="white"/>
</clipPath>
</defs>
</svg>
