<svg width="203" height="32" viewBox="0 0 203 32" fill="none" xmlns="http://www.w3.org/2000/svg">
<g clip-path="url(#clip0_323_103)">
<path d="M18.255 7.32127H16.0492L14.9098 9.12292C13.3353 7.67279 11.3194 6.65039 9.1207 6.65039C4.0832 6.65039 0 10.6565 0 15.5975C0 20.5386 4.08641 24.5447 9.1207 24.5447C11.204 24.5447 13.127 23.7141 14.6638 22.4502V24.1772C14.1342 26.7026 11.8594 28.603 9.12551 28.603C8.2768 28.6059 7.43818 28.4187 6.67099 28.0552C5.90379 27.6917 5.22743 27.161 4.69136 26.502H0.702701C2.08006 29.7305 5.33156 32 9.12551 32C14.0933 32 18.138 28.5974 18.2462 23.2743H18.255V7.32127ZM9.1207 21.1469C5.9958 21.1469 3.46383 18.6591 3.46383 15.5975C3.46383 12.536 5.9966 10.0482 9.1207 10.0482C11.8554 10.0482 14.1374 11.9509 14.6638 14.4812V16.7146C14.1374 19.2441 11.8554 21.1469 9.1207 21.1469Z" fill="white"/>
<path d="M77.9719 3.8147e-06L77.9807 8.93673C76.4239 7.54277 74.4263 6.67927 72.2461 6.67927C67.2783 6.67927 63.2528 10.6196 63.2528 15.5662C63.2528 20.5129 67.2791 24.5222 72.2461 24.5222C74.46 24.5222 76.4856 23.4533 78.052 21.9542L79.3789 24.0407H81.6224V0.0168533L77.9719 3.8147e-06ZM72.3198 21.1437C69.239 21.1437 66.8953 18.6559 66.8953 15.5903C66.8953 12.5247 69.122 10.2689 72.2028 10.2689C74.7316 10.2689 77.1867 11.699 77.9855 13.9877V17.1704C77.2107 19.4664 74.8398 21.1437 72.3198 21.1437Z" fill="white"/>
<path d="M115.257 7.32128H111.119L109.432 9.96554V7.32128H107.155H105.811V24.0383L109.432 24.0552V10.2705L115.257 10.2697V7.32128Z" fill="white"/>
<path d="M169.62 10.2689V7.34133H165.482L163.859 9.88369V0.0248756H161.616L160.231 2.20769L160.207 19.0291V19.6478H160.217C160.306 20.8544 160.847 21.9826 161.732 22.8063C162.617 23.6299 163.78 24.0881 164.988 24.0889H169.592V21.171H165.367C164.967 21.1703 164.583 21.0107 164.301 20.7273C164.018 20.4438 163.859 20.0596 163.859 19.659V10.2697L169.62 10.2689Z" fill="white"/>
<path d="M98.7542 18.0965C98.2775 19.0127 97.5586 19.7801 96.676 20.3148C95.7934 20.8495 94.781 21.1309 93.7495 21.1284C90.6431 21.1284 88.1247 18.6406 88.1247 15.5662C88.1247 12.4918 90.6431 10.0041 93.7495 10.0041C94.7896 10.0014 95.8101 10.2876 96.6977 10.8307C97.5852 11.3738 98.3051 12.1527 98.7774 13.0809H102.463C101.373 9.33717 97.8856 6.59821 93.7495 6.59821C88.7409 6.59821 84.6809 10.6108 84.6809 15.5662C84.6809 20.5217 88.7401 24.5335 93.7495 24.5335C97.8688 24.5335 101.346 21.817 102.45 18.0965H98.7542Z" fill="white"/>
<path d="M131.548 7.35498L126.509 21.1252L121.806 7.35498H118.13L123.997 24.5343H125.261L122.528 32H126.204L135.224 7.35498H131.548Z" fill="white"/>
<path d="M147.988 6.66965C145.745 6.66965 143.652 7.72896 142.077 9.26336L140.851 7.35499H138.579V31.9856L142.227 32.0032L142.187 22.1837C143.748 23.5921 145.756 24.5367 147.948 24.5367C152.916 24.5367 156.937 20.5289 156.937 15.5847C156.937 10.6404 152.953 6.66965 147.988 6.66965ZM147.948 21.1437C145.374 21.1437 142.908 19.4006 142.167 17.038L142.155 14.1579C142.876 11.7864 145.339 10.2689 147.924 10.2689C151.003 10.2689 153.301 12.5231 153.301 15.5903C153.301 18.6575 151.027 21.1437 147.948 21.1437Z" fill="white"/>
<path d="M30.3444 6.63033C25.3461 6.63033 21.2942 10.6372 21.2942 15.5799C21.2942 20.5225 25.3461 24.5295 30.3484 24.5295C35.3506 24.5295 39.4026 20.5225 39.4026 15.5799C39.4026 10.6372 35.3426 6.63033 30.3444 6.63033ZM30.3444 21.1308C27.2443 21.1308 24.7308 18.6431 24.7308 15.5799C24.7308 12.5167 27.2451 10.0289 30.3444 10.0289C33.4436 10.0289 35.9572 12.5167 35.9572 15.5799C35.9572 18.6431 33.4444 21.1308 30.3444 21.1308Z" fill="white"/>
<path d="M51.2179 6.63033C46.2197 6.63033 42.1677 10.6372 42.1677 15.5799C42.1677 20.5225 46.2197 24.5295 51.2219 24.5295C56.2242 24.5295 60.2761 20.5225 60.2761 15.5799C60.2761 10.6372 56.2162 6.63033 51.2179 6.63033ZM51.2179 21.1308C48.1179 21.1308 45.6043 18.6431 45.6043 15.5799C45.6043 12.5167 48.1179 10.0289 51.2179 10.0289C54.318 10.0289 56.8307 12.5167 56.8307 15.5799C56.8307 18.6431 54.318 21.1308 51.2179 21.1308Z" fill="white"/>
<path d="M191.303 18.0019L193.699 15.6024L202.607 6.67766L197.824 6.66322L191.3 13.1996L191.286 13.186L188.889 15.5871L188.902 15.6L185.207 19.2995L184.797 19.7104C183.76 20.6399 182.416 21.1527 181.024 21.1501C177.926 21.1501 175.415 18.6687 175.415 15.6024C175.415 12.536 177.927 10.0554 181.024 10.0554C182.509 10.0517 183.935 10.6362 184.991 11.6813L186.791 13.4829L189.188 11.0818L187.888 9.77856C187.612 9.46027 187.315 9.16229 186.997 8.88696L186.949 8.83963C185.299 7.4268 183.198 6.65246 181.026 6.65679C176.032 6.65679 171.981 10.6629 171.981 15.6008C171.981 20.5386 176.032 24.5447 181.026 24.5447C183.18 24.5496 185.266 23.7873 186.911 22.394L186.942 22.3619C187.295 22.0601 187.624 21.7308 187.926 21.3772L191.301 17.9962L191.303 18.0019Z" fill="url(#paint0_linear_323_103)"/>
<path d="M195.802 17.7057L193.407 20.1052L197.87 24.568H202.667L195.802 17.7057Z" fill="url(#paint1_linear_323_103)"/>
<path d="M202.608 6.67927L197.825 6.66563L188.171 16.3334L190.536 18.7691L202.608 6.67927Z" fill="url(#paint2_linear_323_103)"/>
</g>
<defs>
<linearGradient id="paint0_linear_323_103" x1="171.979" y1="15.6056" x2="202.608" y2="15.6056" gradientUnits="userSpaceOnUse">
<stop offset="0.13" stop-color="white"/>
<stop offset="0.48" stop-color="#01EF67"/>
</linearGradient>
<linearGradient id="paint1_linear_323_103" x1="194.974" y1="39.8678" x2="200.727" y2="7.03382" gradientUnits="userSpaceOnUse">
<stop offset="0.54" stop-color="#01EF67"/>
<stop offset="0.66" stop-color="#01EF67"/>
<stop offset="0.67" stop-color="#092CFB"/>
</linearGradient>
<linearGradient id="paint2_linear_323_103" x1="196.514" y1="18.229" x2="194.624" y2="6.96272" gradientUnits="userSpaceOnUse">
<stop offset="0.23" stop-color="#01EF67" stop-opacity="0"/>
<stop offset="1" stop-color="#092CFB"/>
</linearGradient>
<clipPath id="clip0_323_103">
<rect width="202.667" height="32" fill="white"/>
</clipPath>
</defs>
</svg>
