<svg width="41" height="24" viewBox="0 0 41 24" fill="none" xmlns="http://www.w3.org/2000/svg">
<g clip-path="url(#clip0_3472_2111)">
<path d="M25.7252 15.1987L28.9179 11.9857L40.7768 0.0243607L34.4091 0.0044806L25.7252 8.7661L25.7055 8.74843L22.5151 11.9658L22.5305 11.9835L17.6133 16.9421L17.0677 17.4924C15.6886 18.7424 13.8997 19.4335 12.0454 19.4325C10.8354 19.4219 9.64664 19.1111 8.58391 18.5277C7.52117 17.9442 6.61713 17.1059 5.9516 16.0868C5.28606 15.0677 4.87946 13.8991 4.76766 12.6841C4.65586 11.469 4.84232 10.2449 5.31054 9.11974C5.77877 7.99455 6.51438 7.00284 7.4525 6.23212C8.39063 5.46141 9.50242 4.93536 10.6898 4.7004C11.8772 4.46543 13.1037 4.52876 14.261 4.88481C15.4184 5.24085 16.4711 5.87866 17.3263 6.74198L19.7147 9.14618L22.9073 5.92658L21.1762 4.18088C20.809 3.75525 20.4129 3.35581 19.9908 2.98542L19.9273 2.92134C17.7288 1.02734 14.9303 -0.00981896 12.0388 -0.00215509C5.39065 -0.00215509 -0.00195312 5.36531 -0.00195312 11.9857C-0.00195312 18.6061 5.39065 23.9735 12.0388 23.9735C14.9052 23.983 17.6816 22.9649 19.8725 21.1009L19.9163 21.0589C20.3882 20.6522 20.8278 20.2089 21.231 19.733L25.7252 15.2009V15.1987Z" fill="url(#paint0_linear_3472_2111)"/>
<path d="M31.7136 14.803L28.5254 18.0182L34.4658 23.9999H40.8511L31.7136 14.803Z" fill="#01EF67"/>
<path d="M40.774 0.0220725L34.4062 0.00439453L21.5547 12.9623L24.7035 16.2283L40.774 0.0220725Z" fill="url(#paint1_linear_3472_2111)"/>
</g>
<defs>
<linearGradient id="paint0_linear_3472_2111" x1="0.000238104" y1="11.9879" x2="40.7746" y2="11.9879" gradientUnits="userSpaceOnUse">
<stop offset="0.27" stop-color="white"/>
<stop offset="0.29" stop-color="#F5FEF9"/>
<stop offset="0.34" stop-color="#DAFDE9"/>
<stop offset="0.39" stop-color="#AFFACF"/>
<stop offset="0.46" stop-color="#73F6AB"/>
<stop offset="0.54" stop-color="#27F17E"/>
<stop offset="0.57" stop-color="#01EF67"/>
</linearGradient>
<linearGradient id="paint1_linear_3472_2111" x1="32.6598" y1="15.5035" x2="30.1117" y2="0.40692" gradientUnits="userSpaceOnUse">
<stop offset="0.23" stop-color="#01EF67" stop-opacity="0"/>
<stop offset="1" stop-color="#092CFB"/>
</linearGradient>
<clipPath id="clip0_3472_2111">
<rect width="40.8511" height="24" fill="white"/>
</clipPath>
</defs>
</svg>
