<svg width="151" height="26" viewBox="0 0 151 26" fill="none" xmlns="http://www.w3.org/2000/svg">
<path fill-rule="evenodd" clip-rule="evenodd" d="M76.3069 22.579C75.3122 22.579 74.4006 22.3784 73.5718 21.9771C73.1042 21.7455 72.6982 21.4704 72.353 21.1517C72.1352 20.9503 71.6934 21.087 71.6934 21.3754V21.806C71.6934 22.0017 71.526 22.1603 71.3194 22.1603H69.5261C69.3195 22.1603 69.1521 22.0017 69.1521 21.806V3.7754C69.1521 3.57975 69.3195 3.42114 69.5261 3.42114H71.3112C71.5174 3.42114 71.6852 3.57975 71.6852 3.7754V10.1215C71.6852 10.41 72.1278 10.5475 72.3462 10.3466C72.6941 10.0274 73.1035 9.75175 73.5718 9.51985C74.4006 9.11858 75.3122 8.91791 76.3069 8.91791C78.0932 8.91791 79.6032 9.58091 80.8373 10.9069C82.1079 12.2503 82.7433 13.8642 82.7433 15.7485C82.7433 17.6502 82.1079 19.2641 80.8373 20.5901C79.6032 21.916 78.0932 22.579 76.3069 22.579ZM75.8923 20.3807C77.1078 20.3807 78.1301 19.9445 78.9589 19.0722C79.7874 18.2172 80.202 17.1094 80.202 15.7485C80.202 14.4051 79.7874 13.2971 78.9589 12.4248C78.1301 11.5524 77.1078 11.1162 75.8923 11.1162C74.6586 11.1162 73.6273 11.5524 72.7985 12.4248C71.9879 13.2971 71.583 14.4051 71.583 15.7485C71.583 17.1094 71.9879 18.226 72.7985 19.0983C73.6273 19.9532 74.6586 20.3807 75.8923 20.3807ZM60.4187 22.579C58.43 22.579 56.791 21.9335 55.5017 20.6424C54.2124 19.3513 53.5678 17.72 53.5678 15.7485C53.5678 13.7944 54.1942 12.1718 55.4465 10.8807C56.6989 9.57217 58.301 8.91791 60.2532 8.91791C62.2606 8.91791 63.8537 9.53729 65.0322 10.776C66.3025 12.072 66.9099 14.021 66.8301 15.7938C66.82 16.0211 66.6172 16.1934 66.3771 16.1934H56.6214C56.3712 16.1934 56.1684 16.3894 56.1945 16.625C56.3108 17.6834 56.7429 18.5515 57.4908 19.2292C58.3379 19.9968 59.3505 20.3807 60.5295 20.3807C62.0331 20.3807 63.2355 19.7198 64.1367 18.398C64.2575 18.2213 64.4972 18.1495 64.6967 18.2417L66.2153 18.9435C66.4293 19.0424 66.515 19.2905 66.3909 19.4832C65.804 20.395 65.0289 21.1216 64.0655 21.663C62.9973 22.2737 61.7818 22.579 60.4187 22.579ZM56.505 13.699C56.4152 13.9543 56.6277 14.2044 56.9114 14.2044H63.6404C63.8992 14.2044 64.1061 13.9943 64.0535 13.7541C63.9029 13.0643 63.5383 12.4816 62.9604 12.0061C62.2788 11.4129 61.3583 11.1162 60.198 11.1162C59.2402 11.1162 58.4114 11.3954 57.7115 11.9537C57.1568 12.4083 56.7548 12.99 56.505 13.699ZM52.7889 9.82856C52.8713 9.58553 52.6801 9.33665 52.4105 9.33665H50.6567C50.4803 9.33665 50.3252 9.44658 50.2756 9.60669L47.6885 17.9262C47.5848 18.2599 47.0886 18.2669 46.9745 17.9362L44.0954 9.59604C44.0417 9.4413 43.8896 9.33665 43.7177 9.33665H41.6686C41.4971 9.33665 41.345 9.44087 41.2913 9.59517L38.3865 17.9417C38.2717 18.2717 37.7762 18.2641 37.6725 17.9309L35.0841 9.60669C35.0343 9.44658 34.8791 9.33665 34.703 9.33665H32.8937C32.6242 9.33665 32.4328 9.58553 32.5156 9.82856L36.6241 21.8994C36.677 22.0549 36.8297 22.1603 37.0022 22.1603H38.9924C39.165 22.1603 39.3179 22.0548 39.3708 21.8992L42.27 13.3637C42.3811 13.0365 42.8695 13.0359 42.9818 13.3629L45.9056 21.9001C45.9589 22.0552 46.1114 22.1603 46.2836 22.1603H48.3022C48.4744 22.1603 48.6273 22.0549 48.6802 21.8994L52.7889 9.82856ZM131.53 21.4013C132.267 22.0469 133.188 22.3697 134.293 22.3697C135.024 22.3697 135.68 22.2921 136.26 22.1369C136.458 22.0839 136.558 21.8813 136.49 21.6977L135.947 20.2447C135.874 20.0499 135.642 19.9558 135.434 20.0181C135.377 20.0351 135.32 20.0512 135.26 20.0666C135.076 20.1015 134.882 20.119 134.68 20.119C134.238 20.119 133.842 19.9707 133.492 19.6741C133.142 19.36 132.967 18.7756 132.967 17.9207V11.8892C132.967 11.6936 133.134 11.535 133.341 11.535H135.908C136.115 11.535 136.282 11.3764 136.282 11.1807V9.6909C136.282 9.49525 136.115 9.33665 135.908 9.33665H133.341C133.134 9.33665 132.967 9.17805 132.967 8.9824V3.7754C132.967 3.57975 132.8 3.42114 132.593 3.42114H130.799C130.593 3.42114 130.425 3.57975 130.425 3.7754V8.9824C130.425 9.17805 130.258 9.33665 130.052 9.33665H128.424C128.217 9.33665 128.05 9.49525 128.05 9.6909V11.1807C128.05 11.3764 128.217 11.535 128.424 11.535H130.052C130.258 11.535 130.425 11.6936 130.425 11.8892V18.7057C130.444 19.8573 130.812 20.7558 131.53 21.4013ZM95.2345 21.0088C96.4686 19.9619 97.0853 18.6534 97.0853 17.0832C97.0853 16.1236 96.8001 15.26 96.2292 14.4923C95.9664 14.1273 95.5891 13.6633 94.4817 13.0753C94.248 12.9511 94.242 12.6201 94.4631 12.4765C95.7878 11.6165 96.45 10.3143 96.45 8.78708C96.45 7.33895 95.8885 6.16126 94.7651 5.254C93.6231 4.31187 92.2141 3.8408 90.5382 3.8408C89.1941 3.8408 88.0245 4.18104 87.0302 4.86148C86.1439 5.46778 85.4844 6.24034 85.0515 7.17912C84.9617 7.37365 85.0649 7.59585 85.2711 7.67865L86.8415 8.30871C87.0641 8.39794 87.318 8.2907 87.4179 8.08233C88.0365 6.78999 89.0767 6.14382 90.5382 6.14382C91.533 6.14382 92.3338 6.38807 92.9419 6.87662C93.5496 7.36513 93.8535 8.00195 93.8535 8.78708C93.8535 9.64197 93.531 10.3399 92.8864 10.8807C92.2417 11.4041 91.4133 11.6659 90.4003 11.6659H89.3843C89.152 11.6659 88.9637 11.8443 88.9637 12.0644V13.518C88.9637 13.7381 89.152 13.9165 89.3843 13.9165H90.5938C91.662 13.9165 92.5735 14.2218 93.3285 14.8325C94.1018 15.4431 94.4888 16.1934 94.4888 17.0832C94.4888 17.973 94.1205 18.7319 93.3837 19.36C92.6287 19.9707 91.7354 20.276 90.7041 20.276C89.7649 20.276 88.9544 20.0143 88.2732 19.4909C87.7087 19.0305 87.2777 18.4058 86.9806 17.6167C86.8956 17.3915 86.6312 17.2689 86.3982 17.3609L84.8617 17.9675C84.6649 18.0452 84.559 18.251 84.628 18.4422C85.0578 19.6315 85.8032 20.6092 86.8643 21.3752C88.0063 22.1778 89.2862 22.579 90.7041 22.579C92.509 22.579 94.019 22.0556 95.2345 21.0088ZM101.595 18.2347C101.595 17.5368 101.936 16.9523 102.617 16.4813C103.317 16.0102 104.183 15.7746 105.214 15.7746C106.537 15.7746 107.588 16.0328 108.366 16.5493C108.471 16.6192 108.53 16.7356 108.524 16.8573C108.473 17.7887 108.051 18.6055 107.258 19.3077C106.429 20.0579 105.481 20.433 104.413 20.433C103.658 20.433 102.995 20.2237 102.424 19.8049C101.871 19.3862 101.595 18.8628 101.595 18.2347ZM109.33 10.3573C108.244 9.39772 106.761 8.91791 104.882 8.91791C102.618 8.91791 100.872 9.65591 99.6463 11.1318C99.5143 11.2908 99.5639 11.5205 99.7448 11.6282L101.348 12.5843C101.517 12.6854 101.739 12.6409 101.864 12.4928C102.669 11.5402 103.721 11.0639 105.021 11.0639C105.96 11.0639 106.779 11.3605 107.479 11.9537C108.184 12.5331 108.433 13.2295 108.504 14.0161C108.529 14.2864 108.217 14.4613 107.953 14.3568C107.078 14.0109 106.027 13.838 104.8 13.838C103.032 13.838 101.614 14.2306 100.546 15.0157C99.4957 15.8008 98.9707 16.8564 98.9707 18.1824C98.9707 19.4386 99.4681 20.4854 100.462 21.3228C101.475 22.1603 102.728 22.579 104.22 22.579C105.969 22.579 107.369 21.8463 108.418 20.3807V21.806C108.418 22.0017 108.586 22.1603 108.792 22.1603H110.586C110.793 22.1603 110.96 22.0017 110.96 21.806V14.2568C110.96 12.5993 110.417 11.2994 109.33 10.3573ZM125.705 21.7839C125.705 21.9918 125.527 22.1603 125.308 22.1603H123.561C123.341 22.1603 123.164 21.9918 123.164 21.7839V21.3635C123.164 21.0923 122.73 20.9622 122.526 21.1525C122.206 21.4512 121.82 21.7173 121.368 21.9509C120.576 22.3697 119.748 22.579 118.882 22.579C117.224 22.579 115.944 22.1341 115.042 21.2443C114.158 20.3371 113.716 19.0547 113.716 17.3972V9.71304C113.716 9.50518 113.894 9.33665 114.113 9.33665H115.86C116.08 9.33665 116.257 9.50518 116.257 9.71304V17.2402C116.313 19.3339 117.427 20.3807 119.6 20.3807C120.613 20.3807 121.46 19.9969 122.142 19.2292C122.823 18.4441 123.164 17.5106 123.164 16.4289V9.71304C123.164 9.50518 123.341 9.33665 123.561 9.33665H125.308C125.527 9.33665 125.705 9.50518 125.705 9.71304V21.7839ZM138.834 3.7754C138.834 3.57975 139.002 3.42114 139.208 3.42114H141.002C141.209 3.42114 141.376 3.57975 141.376 3.7754V10.1335C141.376 10.4047 141.808 10.5336 142.01 10.3421C142.326 10.0444 142.703 9.77898 143.144 9.54603C143.954 9.12728 144.792 8.91791 145.658 8.91791C147.315 8.91791 148.586 9.37154 149.47 10.2788C150.372 11.1686 150.824 12.4422 150.824 14.0997V21.806C150.824 22.0017 150.656 22.1603 150.45 22.1603H148.656C148.45 22.1603 148.282 22.0017 148.282 21.806V14.5708C148.282 12.2678 147.205 11.1162 145.05 11.1162C144.019 11.1162 143.144 11.5262 142.426 12.3463C141.726 13.1489 141.376 14.091 141.376 15.1727V21.806C141.376 22.0017 141.209 22.1603 141.002 22.1603H139.208C139.002 22.1603 138.834 22.0017 138.834 21.806V3.7754Z" fill="#79828A"/>
<path d="M22.5262 20.1276C22.6741 20.6594 23.4575 20.6594 23.6054 20.1276L27.8641 4.81825C28.0601 4.11336 27.5087 3.42114 26.7511 3.42114H24.1254C23.6039 3.42114 23.1474 3.75854 23.0124 4.24376L20.6109 12.8769C20.5776 12.9967 20.5776 13.1228 20.6109 13.2425L22.5262 20.1276Z" fill="#79828A"/>
<path d="M7.6434 12.8657C7.67674 12.9855 7.67674 13.1116 7.6434 13.2313L5.72817 20.1164C5.58026 20.6482 4.79689 20.6482 4.64894 20.1164L0.393411 4.81825C0.197325 4.11336 0.74875 3.42114 1.50637 3.42114H4.13208C4.65357 3.42114 5.11003 3.75854 5.245 4.24376L7.6434 12.8657Z" fill="#79828A"/>
<path d="M11.2335 23.4928C11.1032 23.9627 10.6624 24.2896 10.1587 24.2896H7.47175C6.74009 24.2896 6.20756 23.6191 6.39693 22.9362L11.5676 4.29266C11.7101 3.77861 12.1923 3.42114 12.7432 3.42114H15.8684C16.4192 3.42114 16.9014 3.77861 17.044 4.29266L22.2146 22.9362C22.404 23.6191 21.8714 24.2896 21.1398 24.2896H18.4528C17.9492 24.2896 17.5083 23.9627 17.3779 23.4928L14.8264 14.2927C14.6837 13.778 13.9279 13.778 13.7851 14.2927L11.2335 23.4928Z" fill="#79828A"/>
<path d="M13.3619 21.5527C13.1696 21.5527 13.0297 21.3856 13.0795 21.2154L14.0231 17.9882C14.1006 17.7234 14.5106 17.7234 14.588 17.9882L15.5317 21.2154C15.5815 21.3856 15.4415 21.5527 15.2492 21.5527H13.3619Z" fill="#79828A"/>
</svg>
