<svg width="131" height="34" viewBox="0 0 131 34" fill="none" xmlns="http://www.w3.org/2000/svg">
<g clip-path="url(#clip0_3472_1899)">
<path d="M40.4756 22.4119L49.4128 11.5874H40.7241V8.8866H53.1137V11.2082L44.47 22.0328H53.1811V24.7336H40.4756V22.4119ZM60.5216 24.9568C59.5731 24.9568 58.716 24.8001 57.9487 24.4882C57.1815 24.1607 56.5272 23.7217 55.9852 23.171C55.444 22.6056 55.0226 21.9655 54.7216 21.2515C54.4357 20.5227 54.2927 19.7563 54.2927 18.9528C54.2927 17.8367 54.5412 16.8175 55.0375 15.895C55.5488 14.9726 56.2712 14.2357 57.2039 13.685C58.1516 13.1196 59.2655 12.8372 60.544 12.8372C61.8376 12.8372 62.9432 13.1196 63.861 13.685C64.7787 14.2357 65.4786 14.9726 65.9599 15.895C66.4563 16.8027 66.7048 17.7842 66.7048 18.8412C66.7048 19.0193 66.6973 19.2056 66.6823 19.3993C66.6674 19.5774 66.6524 19.7267 66.6374 19.8457H57.4973C57.5572 20.4407 57.7309 20.961 58.0161 21.4075C58.317 21.8539 58.6936 22.1961 59.145 22.4349C59.6113 22.6573 60.1076 22.7689 60.6339 22.7689C61.2357 22.7689 61.8001 22.6278 62.3264 22.3454C62.8684 22.0476 63.2366 21.661 63.4328 21.1842L66.0281 21.899C65.7421 22.494 65.3282 23.0225 64.7862 23.4837C64.2599 23.9449 63.6356 24.3093 62.9133 24.5769C62.1916 24.8304 61.3937 24.9568 60.5216 24.9568ZM57.43 17.9483H63.6132C63.5525 17.3533 63.3796 16.8396 63.0937 16.408C62.8234 15.9616 62.4619 15.6193 62.0105 15.3813C61.5591 15.1286 61.0553 15.0022 60.4984 15.0022C59.9572 15.0022 59.4609 15.1286 59.0095 15.3813C58.573 15.6193 58.2122 15.9616 57.9263 16.408C57.6553 16.8396 57.4899 17.3533 57.43 17.9483ZM75.5881 15.6267C74.6703 15.6267 73.8499 15.8056 73.1283 16.1626C72.4059 16.5048 71.8871 17.0037 71.5712 17.6579V24.7336H68.547V13.0383H71.3227V15.538C71.7442 14.7346 72.2779 14.1019 72.9254 13.6407C73.5714 13.1795 74.2564 12.9267 74.9787 12.8816H75.362C75.4526 12.8816 75.5274 12.889 75.5881 12.9038V15.6267ZM82.5812 24.9568C81.6178 24.9568 80.7532 24.8001 79.9859 24.4882C79.2186 24.1607 78.5636 23.7143 78.0224 23.1489C77.4962 22.5834 77.0897 21.9359 76.8038 21.2072C76.5178 20.4776 76.3748 19.7112 76.3748 18.9077C76.3748 18.0895 76.5178 17.3156 76.8038 16.5869C77.0897 15.8581 77.4962 15.2106 78.0224 14.6452C78.5636 14.0797 79.2186 13.6407 79.9859 13.328C80.7532 13.0006 81.6178 12.8372 82.5812 12.8372C83.5439 12.8372 84.401 13.0006 85.1533 13.328C85.9214 13.6407 86.5756 14.0797 87.1168 14.6452C87.6588 15.2106 88.0645 15.8581 88.3355 16.5869C88.6215 17.3156 88.7644 18.0895 88.7644 18.9077C88.7644 19.7112 88.6215 20.4776 88.3355 21.2072C88.0645 21.9359 87.6588 22.5834 87.1168 23.1489C86.5906 23.7143 85.9438 24.1607 85.1765 24.4882C84.4092 24.8001 83.5439 24.9568 82.5812 24.9568ZM79.4896 18.9077C79.4896 19.5922 79.6251 20.2027 79.8961 20.7386C80.1663 21.2589 80.5346 21.6684 81.001 21.9655C81.4674 22.2634 81.9944 22.4119 82.5812 22.4119C83.1531 22.4119 83.6719 22.2634 84.1383 21.9655C84.6046 21.6536 84.9737 21.2367 85.2439 20.7156C85.5299 20.1805 85.6728 19.57 85.6728 18.8856C85.6728 18.2159 85.5299 17.6135 85.2439 17.0776C84.9737 16.5425 84.6046 16.1256 84.1383 15.8278C83.6719 15.5306 83.1531 15.3813 82.5812 15.3813C81.9944 15.3813 81.4674 15.538 81.001 15.8499C80.5346 16.1478 80.1663 16.5647 79.8961 17.1006C79.6251 17.6209 79.4896 18.2233 79.4896 18.9077ZM90.9009 24.7336V8.8866H96.7232C98.4682 8.8866 99.9279 9.2436 101.102 9.9576C102.274 10.6576 103.154 11.6096 103.742 12.8151C104.328 14.0051 104.621 15.3296 104.621 16.7879C104.621 18.3948 104.298 19.7932 103.651 20.9839C103.005 22.1739 102.086 23.0964 100.898 23.7513C99.7243 24.4061 98.3327 24.7336 96.7232 24.7336H90.9009ZM101.485 16.7879C101.485 15.7612 101.297 14.861 100.92 14.0871C100.545 13.2985 100.003 12.6887 99.2953 12.257C98.5887 11.8106 97.7308 11.5874 96.7232 11.5874H94.0149V22.0328H96.7232C97.7458 22.0328 98.6111 21.8096 99.3185 21.3631C100.025 20.9019 100.56 20.2766 100.92 19.4879C101.297 18.6845 101.485 17.7842 101.485 16.7879ZM112.245 24.9568C111.297 24.9568 110.44 24.8001 109.673 24.4882C108.905 24.1607 108.25 23.7217 107.709 23.171C107.167 22.6056 106.746 21.9655 106.446 21.2515C106.16 20.5227 106.017 19.7563 106.017 18.9528C106.017 17.8367 106.265 16.8175 106.762 15.895C107.273 14.9726 107.995 14.2357 108.928 13.685C109.876 13.1196 110.99 12.8372 112.268 12.8372C113.562 12.8372 114.668 13.1196 115.585 13.685C116.503 14.2357 117.202 14.9726 117.684 15.895C118.18 16.8027 118.428 17.7842 118.428 18.8412C118.428 19.0193 118.421 19.2056 118.406 19.3993C118.391 19.5774 118.376 19.7267 118.361 19.8457H109.221C109.281 20.4407 109.454 20.961 109.74 21.4075C110.041 21.8539 110.417 22.1961 110.868 22.4349C111.335 22.6573 111.831 22.7689 112.358 22.7689C112.96 22.7689 113.523 22.6278 114.051 22.3454C114.592 22.0476 114.961 21.661 115.156 21.1842L117.751 21.899C117.465 22.494 117.051 23.0225 116.51 23.4837C115.984 23.9449 115.359 24.3093 114.637 24.5769C113.916 24.8304 113.118 24.9568 112.245 24.9568ZM109.154 17.9483H115.337C115.277 17.3533 115.104 16.8396 114.818 16.408C114.547 15.9616 114.186 15.6193 113.735 15.3813C113.283 15.1286 112.779 15.0022 112.222 15.0022C111.681 15.0022 111.185 15.1286 110.733 15.3813C110.297 15.6193 109.936 15.9616 109.65 16.408C109.379 16.8396 109.214 17.3533 109.154 17.9483ZM123.122 24.7336L118.766 13.0383H121.904L124.882 22.0106L127.884 13.0383H130.75L126.418 24.7336H123.122Z" fill="#79828A"/>
<path d="M17.9046 0C8.39853 0 0.6875 7.61304 0.6875 17C0.6875 26.387 8.39853 34 17.9046 34C27.4115 34 35.1218 26.387 35.1218 17C35.1218 7.61304 27.4115 0 17.9046 0ZM15.867 8.06909C13.652 8.85404 13.2545 9.77204 13.2545 11.3567C13.2545 11.6369 13.2755 11.988 13.2972 12.359C13.3181 12.7167 13.3399 13.0811 13.3399 13.362C13.3399 15.0509 12.5733 16.0184 10.7693 16.6075L9.58427 16.9933L10.7693 17.3784C12.5658 17.9601 13.3399 18.935 13.3399 20.6247C13.3399 20.8974 13.3181 21.2692 13.2972 21.627C13.2755 21.9987 13.2545 22.3491 13.2545 22.6292C13.2545 24.2206 13.652 25.1393 15.867 25.9169V28.1047C11.2244 27.2074 10.273 25.5665 10.273 23.225C10.273 23.0357 10.2939 22.7061 10.3081 22.3631C10.3291 21.9913 10.3508 21.5989 10.3508 21.3535C10.3508 19.0821 9.35671 18.1493 6.9216 18.1493H6.62367V15.8226H6.9216C9.35671 15.8226 10.3508 14.8972 10.3508 12.6184C10.3508 12.373 10.3291 11.9806 10.3081 11.6088C10.2872 11.2725 10.273 10.9428 10.273 10.747C10.273 8.41204 11.2244 6.77191 15.867 5.87461V8.06909ZM17.9046 22.1665C17.1171 22.1665 16.4779 21.536 16.4779 20.7577C16.4779 19.9794 17.1171 19.3482 17.9046 19.3482C18.6929 19.3482 19.3322 19.9794 19.3322 20.7577C19.3322 21.536 18.6929 22.1665 17.9046 22.1665ZM17.9046 14.6518C17.1171 14.6518 16.4779 14.0206 16.4779 13.2423C16.4779 12.464 17.1171 11.8335 17.9046 11.8335C18.6929 11.8335 19.3322 12.464 19.3322 13.2423C19.3322 14.0206 18.6929 14.6518 17.9046 14.6518ZM29.1864 18.1634H28.8884C26.4533 18.1634 25.4592 19.0888 25.4592 21.3675C25.4592 21.6129 25.4802 22.0054 25.5019 22.3772C25.5229 22.7135 25.5371 23.0431 25.5371 23.239C25.5371 25.5739 24.5856 27.2214 19.943 28.118V25.9309C22.158 25.146 22.5555 24.228 22.5555 22.6433C22.5555 22.3631 22.5338 22.012 22.5128 21.641C22.4911 21.2833 22.4702 20.9115 22.4702 20.6387C22.4702 18.9491 23.2367 17.9816 25.04 17.3925L26.2258 17.0074L25.04 16.6216C23.2442 16.0325 22.4702 15.065 22.4702 13.376C22.4702 13.1026 22.4911 12.7308 22.5128 12.373C22.5338 12.002 22.5555 11.6509 22.5555 11.3708C22.5555 9.77943 22.158 8.86143 19.943 8.08313V5.88865C24.5856 6.78596 25.5371 8.42609 25.5371 10.761C25.5371 10.9502 25.5161 11.2799 25.5019 11.6228C25.4802 11.9946 25.4592 12.3871 25.4592 12.6325C25.4592 14.9038 26.4533 15.8366 28.8884 15.8366H29.1864V18.1634Z" fill="#79828A"/>
</g>
<defs>
<clipPath id="clip0_3472_1899">
<rect width="131" height="34" fill="white"/>
</clipPath>
</defs>
</svg>
